<?xml version="1.0" encoding="utf-8"?>
<!-- Generator: Adobe Illustrator 19.0.0, SVG Export Plug-In . SVG Version: 6.00 Build 0)  -->
<svg version="1.1" id="Layer_1" xmlns="http://www.w3.org/2000/svg" xmlns:xlink="http://www.w3.org/1999/xlink" x="0px" y="0px"
	 viewBox="0 0 96 96" style="enable-background:new 0 0 96 96;" xml:space="preserve">
<style type="text/css">
	.st0{fill:#333333;}
</style>
<g id="XMLID_1_">
	<path id="XMLID_5_" class="st0" d="M48,20.5c-15.2,0-27.5,12.3-27.5,27.5c0,15.2,12.3,27.5,27.5,27.5c15.2,0,27.5-12.3,27.5-27.5
		C75.5,32.8,63.2,20.5,48,20.5z M55.3,47.9h-4.8c0,7.6,0,17,0,17h-7.1c0,0,0-9.3,0-17h-3.4v-6h3.4V38c0-2.8,1.3-7.1,7.1-7.1l5.2,0
		v5.8c0,0-3.2,0-3.8,0c-0.6,0-1.5,0.3-1.5,1.6v3.5h5.4L55.3,47.9z"/>
</g>
</svg>
