<?xml version="1.0" encoding="utf-8"?>
<!-- Generator: Adobe Illustrator 19.0.0, SVG Export Plug-In . SVG Version: 6.00 Build 0)  -->
<svg version="1.1" id="Layer_1" xmlns="http://www.w3.org/2000/svg" xmlns:xlink="http://www.w3.org/1999/xlink" x="0px" y="0px"
	 viewBox="0 0 96 96" style="enable-background:new 0 0 96 96;" xml:space="preserve">
<style type="text/css">
	.st0{fill:#333333;}
</style>
<g id="XMLID_1_">
	<path id="XMLID_3_" class="st0" d="M48,21.2c-15.2,0-27.5,12.3-27.5,27.5c0,12.2,7.9,22.5,18.8,26.1c1.4,0.3,1.9-0.6,1.9-1.3
		c0-0.7,0-2.8,0-5.1c-7.7,1.7-9.3-3.2-9.3-3.2c-1.3-3.2-3.1-4-3.1-4c-2.5-1.7,0.2-1.7,0.2-1.7c2.8,0.2,4.2,2.8,4.2,2.8
		c2.5,4.2,6.4,3,8,2.3c0.2-1.8,1-3,1.7-3.7c-6.1-0.7-12.5-3.1-12.5-13.6c0-3,1.1-5.5,2.8-7.4c-0.3-0.7-1.2-3.5,0.3-7.3
		c0,0,2.3-0.7,7.6,2.8c2.2-0.6,4.5-0.9,6.9-0.9c2.3,0,4.7,0.3,6.9,0.9c5.2-3.6,7.6-2.8,7.6-2.8c1.5,3.8,0.6,6.6,0.3,7.3
		c1.8,1.9,2.8,4.4,2.8,7.4c0,10.6-6.4,12.9-12.6,13.6c1,0.9,1.9,2.5,1.9,5.1c0,3.7,0,6.6,0,7.5c0,0.7,0.5,1.6,1.9,1.3
		c10.9-3.6,18.8-13.9,18.8-26.1C75.5,33.5,63.2,21.2,48,21.2z"/>
	<path id="XMLID_4_" class="st0" d="M30.9,60.7c-0.1,0.1-0.3,0.2-0.5,0.1c-0.2-0.1-0.3-0.3-0.2-0.4c0.1-0.1,0.3-0.2,0.5-0.1
		C30.9,60.3,31,60.5,30.9,60.7z"/>
	<path id="XMLID_5_" class="st0" d="M32,61.9c-0.1,0.1-0.4,0.1-0.6-0.1c-0.2-0.2-0.2-0.4-0.1-0.6c0.1-0.1,0.4-0.1,0.6,0.1
		C32.1,61.5,32.2,61.8,32,61.9z"/>
	<path id="XMLID_6_" class="st0" d="M33.1,63.5c-0.2,0.1-0.4,0-0.6-0.2c-0.2-0.2-0.2-0.5,0-0.7c0.2-0.1,0.4,0,0.6,0.2
		C33.3,63.1,33.3,63.4,33.1,63.5z"/>
	<path id="XMLID_7_" class="st0" d="M34.6,65c-0.2,0.2-0.5,0.1-0.7-0.1c-0.2-0.2-0.3-0.5-0.2-0.7c0.2-0.2,0.5-0.1,0.7,0.1
		C34.7,64.5,34.8,64.9,34.6,65z"/>
	<path id="XMLID_8_" class="st0" d="M36.6,65.9c-0.1,0.2-0.4,0.3-0.7,0.2c-0.3-0.1-0.5-0.3-0.5-0.6c0.1-0.2,0.4-0.3,0.7-0.2
		C36.5,65.4,36.7,65.7,36.6,65.9z"/>
	<path id="XMLID_9_" class="st0" d="M38.9,66.1c0,0.2-0.3,0.4-0.6,0.4c-0.3,0-0.6-0.2-0.6-0.4c0-0.2,0.3-0.4,0.6-0.4
		C38.6,65.7,38.9,65.8,38.9,66.1z"/>
	<path id="XMLID_10_" class="st0" d="M41,65.7c0,0.2-0.2,0.4-0.5,0.5c-0.3,0.1-0.6-0.1-0.7-0.3c0-0.2,0.2-0.5,0.5-0.5
		C40.7,65.4,41,65.5,41,65.7z"/>
</g>
</svg>
