<?xml version="1.0" encoding="utf-8"?>
<!-- Generator: Adobe Illustrator 19.0.0, SVG Export Plug-In . SVG Version: 6.00 Build 0)  -->
<svg version="1.1" id="Layer_1" xmlns="http://www.w3.org/2000/svg" xmlns:xlink="http://www.w3.org/1999/xlink" x="0px" y="0px"
	 viewBox="0 0 96 96" style="enable-background:new 0 0 96 96;" xml:space="preserve">
<style type="text/css">
	.st0{fill:#333333;}
</style>
<g id="XMLID_1_">
	<path id="XMLID_8_" class="st0" d="M48,20.5c-15.2,0-27.5,12.3-27.5,27.5c0,15.2,12.3,27.5,27.5,27.5c15.2,0,27.5-12.3,27.5-27.5
		S63.2,20.5,48,20.5z M41.8,61.1L41.8,61.1L41.8,61.1l-9.6-4.7c-0.1-0.1-0.3-0.3-0.3-0.5l0-21.8l9.8,4.9V61.1z M43,50.7v-9.9
		l8.8,14.3L43,50.7z M46.9,44.9l6.8-10.9l9.9,5L53.4,55.5L46.9,44.9z M63.9,61.1L63.9,61.1L63.9,61.1l-9.6-4.7l9.6-15.6V61.1z"/>
</g>
</svg>
