<?xml version="1.0" encoding="utf-8"?>
<!-- Generator: Adobe Illustrator 19.0.0, SVG Export Plug-In . SVG Version: 6.00 Build 0)  -->
<svg version="1.1" id="Layer_1" xmlns="http://www.w3.org/2000/svg" xmlns:xlink="http://www.w3.org/1999/xlink" x="0px" y="0px"
	 viewBox="0 0 96 96" style="enable-background:new 0 0 96 96;" xml:space="preserve">
<style type="text/css">
	.st0{fill:#333333;}
</style>
<g id="XMLID_1_">
	<path id="XMLID_5_" class="st0" d="M48,20.5c-15.2,0-27.5,12.3-27.5,27.5c0,15.2,12.3,27.5,27.5,27.5c15.2,0,27.5-12.3,27.5-27.5
		C75.5,32.8,63.2,20.5,48,20.5z M61.9,42.5c0,0.3,0,0.6,0,0.9c0,9.2-7,19.7-19.7,19.7c-3.9,0-7.6-1.1-10.6-3.1
		c0.5,0.1,1.1,0.1,1.7,0.1c3.2,0,6.2-1.1,8.6-3c-3-0.1-5.6-2.1-6.5-4.8c0.4,0.1,0.9,0.1,1.3,0.1c0.6,0,1.2-0.1,1.8-0.2
		c-3.2-0.6-5.6-3.4-5.6-6.8l0-0.1c0.9,0.5,2,0.8,3.1,0.9c-1.9-1.2-3.1-3.4-3.1-5.8c0-1.3,0.3-2.5,0.9-3.5c3.4,4.2,8.5,7,14.3,7.2
		c-0.1-0.5-0.2-1-0.2-1.6c0-3.8,3.1-6.9,6.9-6.9c2,0,3.8,0.8,5.1,2.2c1.6-0.3,3.1-0.9,4.4-1.7c-0.5,1.6-1.6,3-3,3.8
		c1.4-0.2,2.7-0.5,4-1.1C64.4,40.3,63.2,41.5,61.9,42.5z"/>
</g>
</svg>
