<?xml version="1.0" standalone="no"?>
<!DOCTYPE svg PUBLIC "-//W3C//DTD SVG 1.1//EN" "http://www.w3.org/Graphics/SVG/1.1/DTD/svg11.dtd" >
<svg>
<metadata>
Created by FontForge 20120731 at Fri Jul 15 20:47:45 2016
 By ,,,
Copyright (c) 2015 by Mathieu Desjardins. All rights reserved.
</metadata>
<defs>
<font id="PierSans" horiz-adv-x="500" >
  <font-face 
    font-family="Pier Sans"
    font-weight="400"
    font-stretch="normal"
    units-per-em="1000"
    panose-1="2 0 5 5 0 0 0 2 0 3"
    ascent="745"
    descent="-255"
    x-height="494"
    cap-height="750"
    bbox="-30 -274 1030 996"
    underline-thickness="0"
    underline-position="0"
    unicode-range="U+0020-2212"
  />
<missing-glyph 
d="M50 -255v1005h400v-1005h-400zM100 -205h300v905h-300v-905z" />
    <glyph glyph-name=".notdef" 
d="M50 -255v1005h400v-1005h-400zM100 -205h300v905h-300v-905z" />
    <glyph glyph-name=".null" horiz-adv-x="0" 
 />
    <glyph glyph-name="nonmarkingreturn" horiz-adv-x="333" 
 />
    <glyph glyph-name="space" unicode=" " horiz-adv-x="300" 
 />
    <glyph glyph-name="exclam" unicode="!" horiz-adv-x="323" 
d="M223 750l-10 -564h-103l-10 564h123zM218 37q0 -24 -16.5 -40.5t-40.5 -16.5q-23 0 -39.5 16.5t-16.5 40.5q0 23 16.5 39.5t39.5 16.5q24 0 40.5 -16.5t16.5 -39.5z" />
    <glyph glyph-name="quotedbl" unicode="&#x22;" horiz-adv-x="423" 
d="M200 641q0 -25 -12 -41l-94 -136h-34l37 114q-37 20 -37 63q0 29 20 49t49 20q30 0 50.5 -20t20.5 -49zM383 641q0 -25 -12 -41l-94 -136h-34l37 114q-37 20 -37 63q0 29 20.5 49t48.5 20q30 0 50.5 -20t20.5 -49z" />
    <glyph glyph-name="numbersign" unicode="#" horiz-adv-x="967" 
d="M867 395h-180l-52 -140h139v-99h-175l-57 -156h-105l57 156h-182l-57 -156h-105l58 156h-108v99h144l52 140h-103v99h139l59 161h104l-59 -161h182l60 161h104l-59 -161h144v-99zM530 255l52 140h-182l-51 -140h181z" />
    <glyph glyph-name="dollar" unicode="$" horiz-adv-x="657" 
d="M198 519q8 -21 25.5 -36t33 -21.5t52.5 -19.5v223q-76 -8 -104 -62q-22 -42 -7 -84zM489 243q-8 22 -26.5 38t-35.5 23t-54 20v-238q87 15 114 79q7 17 7.5 36t-2 30t-3.5 12zM373 -130h-64v120q-154 9 -259 124l74 74q24 -43 76.5 -71t108.5 -34v262q-104 32 -141 55
q-55 34 -75 88q-30 80 12 158q31 59 90.5 83.5t113.5 28.5v122h64v-124q137 -16 233 -122l-73 -73q-52 76 -160 102v-242q105 -31 142 -53q58 -35 80 -93q4 -9 8 -25.5t3 -52.5t-15 -68q-24 -56 -81.5 -92t-136.5 -44v-123z" />
    <glyph glyph-name="percent" unicode="%" horiz-adv-x="838" 
d="M200 660q-33 0 -56.5 -24t-23.5 -57t23.5 -56.5t56.5 -23.5q34 0 57.5 23.5t23.5 56.5t-23.5 57t-57.5 24zM200 750q71 0 121 -50t50 -121t-50 -120.5t-121 -49.5q-70 0 -120 49.5t-50 120.5t50 121t120 50zM637 250q-33 0 -56.5 -23.5t-23.5 -56.5q0 -34 23.5 -57.5
t56.5 -23.5q34 0 57.5 23.5t23.5 57.5q0 33 -23.5 56.5t-57.5 23.5zM637 340q71 0 121 -49.5t50 -120.5t-50 -121t-121 -50q-70 0 -120 50t-50 121q0 70 49.5 120t120.5 50zM334 0h-105l276 750h104z" />
    <glyph glyph-name="ampersand" unicode="&#x26;" horiz-adv-x="737" 
d="M707 0h-141l-53 60q-43 -39 -94 -54.5t-133 -15.5q-107 1 -181.5 74.5t-74.5 182.5q0 71 33.5 131.5t90.5 96.5q-40 50 -40 114q0 73 50.5 121.5t122.5 48.5q73 0 123 -48.5t50 -121.5q0 -64 -39 -114q-18 -25 -57 -45q-17 -8 -31 -12l175 -196q21 41 28 80l102 -18
q-11 -58 -38 -111q-6 -14 -19 -33zM287 655q-29 0 -49.5 -22.5t-20.5 -53.5t20.5 -53.5t49.5 -22.5t49.5 22t20.5 54t-20.5 54t-49.5 22zM287 93q100 0 157 45l-227 254q-38 -21 -61 -59.5t-23 -85.5q0 -67 44.5 -110.5t109.5 -43.5z" />
    <glyph glyph-name="quotesingle" unicode="'" horiz-adv-x="250" 
d="M200 641q0 -25 -12 -41l-94 -136h-34l37 114q-37 20 -37 63q0 29 20 49t49 20q30 0 50.5 -20t20.5 -49z" />
    <glyph glyph-name="parenleft" unicode="(" horiz-adv-x="368" 
d="M190 329q0 -81 17 -152.5t38.5 -115t50.5 -80.5t44 -50.5t28 -22.5l-46 -82q-242 171 -242 503q0 333 242 502l46 -81q-13 -9 -28 -22.5t-44 -50.5t-50.5 -81t-38.5 -115t-17 -152z" />
    <glyph glyph-name="parenright" unicode=")" horiz-adv-x="388" 
d="M178 329q0 81 -17 152t-38.5 115t-50.5 81t-44 50.5t-28 22.5l46 81q242 -169 242 -502q0 -332 -242 -503l-46 82q13 9 28 22.5t44 50.5t50.5 80.5t38.5 115t17 152.5z" />
    <glyph glyph-name="asterisk" unicode="*" horiz-adv-x="320" 
d="M270 629v-60h-58l29 -50l-52 -30l-29 50l-29 -50l-52 30l29 50h-58v60h58l-29 51l52 30l29 -51l29 51l52 -30l-29 -51h58z" />
    <glyph glyph-name="plus" unicode="+" horiz-adv-x="546" 
d="M446 205h-136v-136h-84v136h-136v84h136v136h84v-136h136v-84z" />
    <glyph glyph-name="comma" unicode="," horiz-adv-x="190" 
d="M180 63q0 -25 -12 -41l-94 -136h-34l37 114q-37 20 -37 63q0 29 20 49t49 20q30 0 50.5 -20t20.5 -49z" />
    <glyph glyph-name="hyphen" unicode="-" horiz-adv-x="536" 
d="M446 301v-84h-356v84h356z" />
    <glyph glyph-name="period" unicode="." horiz-adv-x="261" 
d="M201 61q0 -30 -20.5 -50.5t-50.5 -20.5q-29 0 -49.5 20.5t-20.5 50.5q0 29 20.5 49t49.5 20q30 0 50.5 -20t20.5 -49z" />
    <glyph glyph-name="slash" unicode="/" horiz-adv-x="360" 
d="M95 0h-105l276 750h104z" />
    <glyph glyph-name="zero" unicode="0" horiz-adv-x="615" 
d="M564 506h1v-263h-1q-1 -109 -75.5 -181t-181.5 -72t-181.5 72t-75.5 181v263q1 108 75.5 180.5t181.5 72.5t181.5 -72.5t75.5 -180.5zM461 247v255q0 67 -44.5 110t-109.5 43t-109.5 -43t-44.5 -110v-255q0 -67 44.5 -110.5t109.5 -43.5t109.5 43.5t44.5 110.5z" />
    <glyph glyph-name="one" unicode="1" horiz-adv-x="353" 
d="M50 750h223v-750h-111v658h-112v92z" />
    <glyph glyph-name="two" unicode="2" horiz-adv-x="616" 
d="M479 323q-47 -63 -167 -174q-36 -34 -65 -57h291v-92h-458v92q80 55 161 133q118 111 155 160q56 77 56 134t-27 91q-15 19 -38 30.5t-35.5 13.5t-19.5 2q-46 2 -81 -25q-49 -33 -66 -98l-101 22q23 106 109 163q68 45 143 42q107 -6 171 -85q49 -62 49 -156
q0 -46 -21 -100q-21 -49 -56 -96z" />
    <glyph glyph-name="three" unicode="3" horiz-adv-x="570" 
d="M323 495q75 -30 122 -97.5t47 -150.5q0 -110 -78 -183.5t-189 -73.5q-65 0 -121.5 29.5t-93.5 79.5l100 43q48 -48 115 -48q71 0 117 40.5t46 112.5q0 66 -47.5 114t-115.5 48h-79l182 248h-231v93h413z" />
    <glyph glyph-name="four" unicode="4" horiz-adv-x="572" 
d="M502 0h-111v199h-351v81l343 470h119v-459h60v-92h-60v-199zM179 291h212v301z" />
    <glyph glyph-name="five" unicode="5" horiz-adv-x="555" 
d="M294 511q106 -14 169.5 -102t48.5 -198q-16 -108 -101 -170.5t-192 -47.5q-106 15 -171 106l83 62q37 -56 103 -65q64 -9 114.5 27.5t60.5 102.5q10 67 -28.5 120.5t-101.5 62.5q-53 8 -97 -21q-2 -1 -6 -3.5t-6 -3.5h-99v369h368v-92h-257v-156q56 18 112 9z" />
    <glyph glyph-name="six" unicode="6" horiz-adv-x="615" 
d="M308 514q107 0 182 -78t75 -189q0 -109 -75 -182.5t-182 -73.5q-108 0 -183 73.5t-75 182.5q0 72 36 135l207 368h119l-134 -238q10 2 30 2zM308 94q65 0 109.5 43.5t44.5 109.5q0 68 -45 116t-109 48t-109 -48t-45 -116q0 -66 44.5 -109.5t109.5 -43.5z" />
    <glyph glyph-name="seven" unicode="7" horiz-adv-x="580" 
d="M40 750h540l-418 -750h-122l369 658h-369v92z" />
    <glyph glyph-name="eight" unicode="8" horiz-adv-x="595" 
d="M431 465q124 -78 124 -219q0 -109 -75 -182.5t-182 -73.5q-108 0 -183 73.5t-75 182.5q0 140 124 219q-39 48 -39 114q0 74 50.5 127t122.5 53q71 0 122 -53t51 -127q0 -64 -40 -114zM228 579q0 -32 20.5 -54t49.5 -22t49.5 22.5t20.5 53.5t-20.5 53.5t-49.5 22.5
t-49.5 -22t-20.5 -54zM298 93q65 0 109.5 43.5t44.5 109.5q0 67 -44.5 110.5t-109.5 43.5t-109.5 -43.5t-44.5 -110.5q0 -66 44.5 -109.5t109.5 -43.5z" />
    <glyph glyph-name="nine" unicode="9" horiz-adv-x="605" 
d="M565 503q0 -71 -35 -135l-208 -368h-118l133 238q-20 -2 -30 -2q-106 0 -181.5 78.5t-75.5 188.5q0 109 75 183t182 74t182.5 -74t75.5 -183zM153 503q0 -67 45 -115t109 -48t109 48t45 115t-44.5 110t-109.5 43t-109.5 -43t-44.5 -110z" />
    <glyph glyph-name="colon" unicode=":" horiz-adv-x="241" 
d="M191 383q0 -30 -20.5 -50.5t-50.5 -20.5q-29 0 -49.5 20.5t-20.5 50.5q0 29 20.5 49t49.5 20q30 0 50.5 -20t20.5 -49zM191 61q0 -30 -20.5 -50.5t-50.5 -20.5q-29 0 -49.5 20.5t-20.5 50.5q0 29 20.5 49t49.5 20q30 0 50.5 -20t20.5 -49z" />
    <glyph glyph-name="semicolon" unicode=";" horiz-adv-x="241" 
d="M191 63q0 -25 -12 -41l-94 -136h-34l37 114q-37 20 -37 63q0 29 20.5 49t48.5 20q30 0 50.5 -20t20.5 -49zM191 383q0 -30 -20.5 -50.5t-50.5 -20.5q-29 0 -49.5 20.5t-20.5 50.5q0 29 20.5 49t49.5 20q30 0 50.5 -20t20.5 -49z" />
    <glyph glyph-name="less" unicode="&#x3c;" horiz-adv-x="484" 
d="M60 248v63l364 248v-104l-262 -176l262 -175v-104z" />
    <glyph glyph-name="equal" unicode="=" horiz-adv-x="546" 
d="M446 371v-84h-356v84h356zM446 210v-84h-356v84h356z" />
    <glyph glyph-name="greater" unicode="&#x3e;" horiz-adv-x="484" 
d="M424 311v-63l-364 -248v104l262 175l-262 176v104z" />
    <glyph glyph-name="question" unicode="?" horiz-adv-x="549" 
d="M340 37q0 -24 -16.5 -40.5t-40.5 -16.5q-23 0 -39.5 16.5t-16.5 40.5q0 23 16.5 39.5t39.5 16.5q24 0 40.5 -16.5t16.5 -39.5zM334 157h-104q-2 83 30 153q13 28 27.5 46t39 38t29.5 25q18 18 25.5 26t16 22.5t12.5 30.5q7 27 2 59q-6 37 -26 63q-33 42 -89 45
q-72 0 -112 -51q-26 -34 -32 -85l-103 10q6 77 56 136q49 55 123 75q43 11 75 7q36 -2 69 -14q55 -20 92 -63t50 -106q9 -51 -5 -99q-7 -28 -23.5 -53.5t-27.5 -36.5t-34 -32q-51 -43 -70 -86q-23 -50 -21 -110z" />
    <glyph glyph-name="at" unicode="@" horiz-adv-x="979" 
d="M470 63q42 0 77 24t55 65q22 42 22 93t-22 93q-20 40 -55.5 64.5t-76.5 24.5q-63 0 -108 -53.5t-45 -128.5q0 -76 45 -129t108 -53zM515 -141q32 0 69 8q29 7 59 23l28 -54q-34 -18 -73 -27q-37 -10 -80 -10h-3q-99 2 -187 39q-82 35 -149 102q-63 64 -95 142
q-35 83 -34 168q0 78 33 157q31 72 86 131q56 57 122 94q67 36 144 49q60 9 128 0q60 -10 109 -29q67 -29 115 -71q68 -59 104 -143q28 -66 36 -147q7 -96 -14 -186q-21 -94 -67 -144.5t-102 -50.5q-69 0 -105.5 39.5t-36.5 74.5v2q-59 -48 -132 -48q-106 0 -181.5 78.5
t-75.5 188.5t75 188t182 78q69 0 132 -47v28h104v-402q0 -90 38 -90q27 0 49 15.5t34.5 38.5t18.5 38t9 26q19 82 12 168q-14 157 -120 250q-123 107 -302 86q-67 -11 -125 -43q-62 -34 -107 -82q-48 -51 -75 -113q-28 -67 -28 -135q-1 -72 29 -144q28 -67 82 -122
q57 -58 131 -90q75 -32 163 -34z" />
    <glyph glyph-name="A" unicode="A" horiz-adv-x="694" 
d="M376 750l308 -750h-120l-75 196h-295l-74 -196h-120l308 750h68zM229 288h225l-112 296z" />
    <glyph glyph-name="B" unicode="B" horiz-adv-x="700" 
d="M522 421q45 -31 71.5 -81.5t26.5 -109.5q0 -95 -65.5 -162.5t-157.5 -67.5h-297v750h297q76 0 129 -56t53 -134q0 -82 -57 -139zM211 658v-198h186h3q28 2 48 31.5t20 68.5q0 40 -21 69t-50 29h-186zM397 92q46 0 79 40.5t33 97.5q0 55 -31.5 95.5t-75.5 42.5h-5h-186
v-276h186z" />
    <glyph glyph-name="C" unicode="C" horiz-adv-x="769" 
d="M635 177l73 -73q-104 -114 -277 -114q-159 0 -270 111t-111 274q0 162 111 273t270 111q173 0 278 -115l-73 -73q-32 47 -87 71.5t-118 24.5q-114 0 -192 -87t-78 -205q0 -72 32 -138.5t95.5 -110.5t142.5 -44q60 0 118 24t86 71z" />
    <glyph glyph-name="D" unicode="D" horiz-adv-x="792" 
d="M732 375q0 -155 -105.5 -264.5t-254.5 -110.5h-292v750h292q149 -1 254.5 -110.5t105.5 -264.5zM370 92q104 0 176 81q75 84 75 202t-75 201q-73 82 -176 82h-179v-566h179z" />
    <glyph glyph-name="E" unicode="E" horiz-adv-x="658" 
d="M201 92h407v-92h-518v750h499v-92h-388v-222h317v-93h-317v-251z" />
    <glyph glyph-name="F" unicode="F" horiz-adv-x="638" 
d="M588 658h-387v-234h317v-92h-317v-332h-111v750h498v-92z" />
    <glyph glyph-name="G" unicode="G" horiz-adv-x="872" 
d="M497 420h305v-420h-111v96q-103 -106 -270 -106q-159 0 -270 111t-111 274q0 162 111.5 273t269.5 111q175 0 278 -115l-73 -73q-86 96 -205 96t-194 -84t-75 -208q0 -113 75.5 -203t193.5 -90q120 0 189 77q64 72 78 169h-191v92z" />
    <glyph glyph-name="H" unicode="H" horiz-adv-x="735" 
d="M534 750h111v-750h-111v329h-353v-329h-111v750h111v-329h353v329z" />
    <glyph glyph-name="I" unicode="I" horiz-adv-x="311" 
d="M201 750v-750h-111v750h111z" />
    <glyph glyph-name="J" unicode="J" horiz-adv-x="618" 
d="M436 750h112v-513q0 -48 -12.5 -90t-39.5 -78.5t-76 -57.5t-115 -21t-115.5 21t-76.5 57.5t-40 78.5t-13 90h111q0 -155 134 -155q37 0 63.5 12.5t39 28.5t19.5 41t8 39t1 34v513z" />
    <glyph glyph-name="K" unicode="K" horiz-adv-x="824" 
d="M774 750l-369 -310l369 -440h-155l-299 369l-109 -91v-278h-111v750h111v-342l400 342h163z" />
    <glyph glyph-name="L" unicode="L" horiz-adv-x="599" 
d="M181 92h378v-92h-489v750h111v-658z" />
    <glyph glyph-name="M" unicode="M" horiz-adv-x="1033" 
d="M927 750h16v-750h-111v563l-289 -563h-63l-289 563v-563h-111v750h15h119l297 -580l297 580h119z" />
    <glyph glyph-name="N" unicode="N" horiz-adv-x="838" 
d="M748 750v-750h-134l-402 597v-597h-112v750h134l403 -597v597h111z" />
    <glyph glyph-name="O" unicode="O" horiz-adv-x="832" 
d="M411 667q-116 0 -193 -87.5t-77 -204.5q0 -118 77 -205.5t193 -87.5t193 87.5t77 205.5q0 117 -77 204.5t-193 87.5zM411 759q159 0 270 -111t111 -273q0 -163 -111 -274t-270 -111t-270 111t-111 274q0 162 111 273t270 111z" />
    <glyph glyph-name="P" unicode="P" horiz-adv-x="706" 
d="M646 474q0 -114 -77 -194.5t-187 -81.5h-180v-198h-112v750h292q110 -1 187 -81.5t77 -194.5zM380 290q64 0 109.5 54t45.5 130t-45.5 130t-109.5 54h-178v-368h178z" />
    <glyph glyph-name="Q" unicode="Q" horiz-adv-x="894" 
d="M834 7l-68 -63l-103 111q-86 -65 -222 -65q-159 0 -270 111t-111 274t111 273.5t270 110.5t270 -111t111 -273q0 -146 -92 -257zM441 82q97 0 155 45l-113 122l68 63l107 -117q52 80 52 180q0 118 -76.5 205t-192.5 87t-193 -87t-77 -205q0 -114 75.5 -203.5t194.5 -89.5
z" />
    <glyph glyph-name="R" unicode="R" horiz-adv-x="696" 
d="M636 484q0 -84 -44 -149.5t-117 -96.5l161 -238h-123l-147 218h-175v-218h-111v218v92v348v92h111h180q111 -1 188 -77.5t77 -188.5zM191 658v-348h179q65 0 110 49.5t45 124.5t-45 124.5t-110 49.5h-179z" />
    <glyph glyph-name="S" unicode="S" horiz-adv-x="677" 
d="M595 275q4 -9 8 -25.5t3 -52.5t-15 -68q-27 -64 -97.5 -101t-165.5 -38q-80 0 -152 33t-126 91l74 74q26 -46 84.5 -76t119.5 -30q125 1 159 83q7 17 7.5 36t-2 30t-3.5 12q-7 19 -18 32.5t-35.5 25.5t-36.5 16t-52 16q-13 4 -19 6q-2 1 -34 10.5t-38 11.5t-33 11.5
t-35.5 15t-28.5 17.5t-29 23t-20 26.5t-17 33.5q-30 80 12 158q20 38 55 63.5t73.5 35t59 12t35.5 2.5q164 0 278 -125l-73 -73q-32 46 -88 76t-117 30q-4 0 -10.5 -0.5t-23.5 -4t-31.5 -9.5t-31 -19t-26.5 -31q-22 -42 -7 -84q13 -34 43.5 -51t96.5 -36q11 -3 17 -5
q7 -2 35.5 -10.5t37.5 -11.5t34 -12t35.5 -15t29 -17.5t29 -23t21.5 -28t18 -34.5z" />
    <glyph glyph-name="T" unicode="T" horiz-adv-x="575" 
d="M575 750v-92h-232v-658h-111v658h-232v92h575z" />
    <glyph glyph-name="U" unicode="U" horiz-adv-x="732" 
d="M561 750h111v-456q0 -41 -6.5 -78.5t-26.5 -80t-52 -73.5t-87.5 -51.5t-127.5 -20.5t-127.5 20.5t-88 51.5t-52.5 73t-27 80.5t-7 78.5v456h111v-456q0 -20 2 -40t13 -53.5t30 -57.5t57 -42.5t89 -18.5q37 0 67.5 9.5t49.5 24.5t33.5 36t21.5 39.5t11 41t5 35.5t1 26v456
z" />
    <glyph glyph-name="V" unicode="V" horiz-adv-x="661" 
d="M362 0h-63l-289 750h119l202 -552l201 552h119z" />
    <glyph glyph-name="W" unicode="W" horiz-adv-x="1030" 
d="M324 0h-57l-267 750h118l179 -529l189 529h57l189 -529l179 529h119l-267 -750h-57l-191 527z" />
    <glyph glyph-name="X" unicode="X" horiz-adv-x="709" 
d="M679 750l-261 -376l260 -374h-129l-194 280l-195 -280h-130l261 374l-261 376h130l194 -281l196 281h129z" />
    <glyph glyph-name="Y" unicode="Y" horiz-adv-x="689" 
d="M584 750h135l-309 -452v-298h-111v298l-309 452h135l229 -350z" />
    <glyph glyph-name="Z" unicode="Z" horiz-adv-x="745" 
d="M645 750v-114l-429 -544h429v-92h-545v114l428 544h-428v92h493h52z" />
    <glyph glyph-name="bracketleft" unicode="[" horiz-adv-x="303" 
d="M191 -80h112v-92h-223v1094h223v-92h-112v-910z" />
    <glyph glyph-name="backslash" unicode="\" horiz-adv-x="360" 
d="M370 0h-105l-275 750h104z" />
    <glyph glyph-name="bracketright" unicode="]" horiz-adv-x="303" 
d="M0 -80h112v910h-112v92h223v-1094h-223v92z" />
    <glyph glyph-name="asciicircum" unicode="^" 
d="M307 750l107 -166h-86l-78 96l-78 -96h-86l107 166h114z" />
    <glyph glyph-name="underscore" unicode="_" 
d="M503 -50v-84h-506v84h506z" />
    <glyph glyph-name="grave" unicode="`" 
d="M338 584h-86l-98 116l97 50z" />
    <glyph glyph-name="a" unicode="a" horiz-adv-x="534" 
d="M271 504q98 0 148.5 -48t50.5 -111v-345h-103v54q-24 -33 -63.5 -48t-76.5 -15q-84 0 -135.5 43.5t-51.5 110.5q0 86 53.5 126.5t133.5 40.5h140v33q0 74 -96 74q-72 0 -118 -64l-71 64q77 85 189 85zM367 154v74h-126q-47 0 -74.5 -23t-22.5 -64q8 -66 97 -66
q65 0 95.5 24t30.5 55z" />
    <glyph glyph-name="b" unicode="b" horiz-adv-x="595" 
d="M308 503q106 0 176.5 -73.5t70.5 -183.5t-70.5 -183t-176.5 -73q-79 0 -142 47v-37h-103v750h103v-295q25 20 65.5 34t76.5 14zM298 74q65 0 109.5 49t44.5 123q0 75 -44.5 123.5t-109.5 48.5q-92 0 -132 -78q-22 -44 -22 -94q0 -51 22 -93q40 -79 132 -79z" />
    <glyph glyph-name="c" unicode="c" horiz-adv-x="516" 
d="M405 129l71 -64q-68 -75 -189 -75q-107 0 -182 73.5t-75 182.5t75 183t182 74q121 0 189 -75l-71 -64q-40 54 -118 54q-65 0 -109.5 -48.5t-44.5 -123.5q0 -74 44.5 -123t109.5 -49q78 0 118 55z" />
    <glyph glyph-name="d" unicode="d" horiz-adv-x="613" 
d="M40 246q0 110 70.5 183.5t176.5 73.5q36 0 76.5 -14t65.5 -34v295h104v-750h-104v37q-63 -47 -142 -47q-106 0 -176.5 73t-70.5 183zM144 246q0 -74 44.5 -123t108.5 -49q93 0 132 79q22 42 22 93q0 50 -22 94q-38 78 -132 78q-64 0 -108.5 -48.5t-44.5 -123.5z" />
    <glyph glyph-name="e" unicode="e" horiz-adv-x="566" 
d="M526 246v-37h-389q0 -63 48 -99t103 -36q36 0 71 17.5t56 47.5l71 -64q-62 -85 -198 -85q-118 0 -188 72t-70 184t67.5 184.5t180.5 72.5q209 0 244 -209q4 -21 4 -48zM139 294h279q0 58 -40 91t-100 33q-58 0 -98.5 -35t-40.5 -89z" />
    <glyph glyph-name="f" unicode="f" horiz-adv-x="372" 
d="M342 665q-37 17 -72 3q-36 -16 -46.5 -39t-10.5 -85v-50h129v-84h-129v-410h-103v410h-60v84h60v50q0 63 4.5 86.5t25.5 58.5q43 71 143 71q35 0 59 -15v-80z" />
    <glyph glyph-name="g" unicode="g" horiz-adv-x="608" 
d="M425 494h103v-502q0 -110 -75 -188t-182 -78q-111 0 -188 85l71 64q46 -65 117 -65q64 0 109 53.5t45 128.5v46q-25 -20 -65.5 -33.5t-76.5 -13.5q-106 0 -176.5 73t-70.5 183t70.5 183.5t176.5 73.5q80 0 142 -48v38zM293 75q92 0 132 79q22 42 22 93q0 50 -22 94
q-40 78 -132 78q-65 0 -109.5 -48.5t-44.5 -123.5q0 -74 44.5 -123t109.5 -49z" />
    <glyph glyph-name="h" unicode="h" horiz-adv-x="597" 
d="M527 285v-285h-103v275q0 76 -26.5 110t-89.5 34q-69 0 -102 -42t-33 -112v-265h-103v750h103v-336q10 33 50.5 59t84.5 29q104 8 161.5 -45.5t57.5 -171.5z" />
    <glyph glyph-name="i" unicode="i" horiz-adv-x="263" 
d="M178 494v-494h-103v494h103zM183 675q0 -24 -16.5 -40.5t-40.5 -16.5q-23 0 -39.5 16.5t-16.5 40.5q0 23 16.5 39.5t39.5 16.5q24 0 40.5 -16.5t16.5 -39.5z" />
    <glyph glyph-name="j" unicode="j" horiz-adv-x="298" 
d="M218 675q0 -24 -16.5 -40.5t-39.5 -16.5q-24 0 -40.5 16.5t-16.5 40.5q0 23 16.5 39.5t40.5 16.5q23 0 39.5 -16.5t16.5 -39.5zM-20 -108q37 -17 72 -3q36 16 46.5 43t10.5 91v471h103v-471q0 -48 -1 -66t-7.5 -41.5t-21.5 -47.5q-42 -71 -143 -71q-35 0 -59 15v80z" />
    <glyph glyph-name="k" unicode="k" horiz-adv-x="558" 
d="M415 0l-187 239l-54 -46v-193h-104v750h104v-429l199 173h160l-230 -192l245 -302h-133z" />
    <glyph glyph-name="l" unicode="l" horiz-adv-x="264" 
d="M174 769v-769h-104v769h104z" />
    <glyph glyph-name="m" unicode="m" horiz-adv-x="901" 
d="M504 285v-285h-104l1 4v271q0 77 -24.5 110.5t-86.5 33.5q-130 0 -130 -154v-265h-103v494h103v-80q11 33 48.5 59t81.5 29q152 11 197 -105q15 48 56.5 75t89.5 30q103 8 158.5 -45t55.5 -172v-285h-103v275q0 77 -24.5 110.5t-86.5 33.5q-117 0 -129 -134z" />
    <glyph glyph-name="n" unicode="n" horiz-adv-x="594" 
d="M517 285v-285h-103v275q0 76 -26.5 110t-89.5 34q-69 0 -102 -42t-33 -112v-265h-103v494h103v-80q10 33 50.5 59t84.5 29q104 8 161.5 -45.5t57.5 -171.5z" />
    <glyph glyph-name="o" unicode="o" horiz-adv-x="604" 
d="M297 418q-65 0 -109.5 -48.5t-44.5 -123.5q0 -74 44.5 -123t109.5 -49t109.5 49t44.5 123q0 75 -44.5 123.5t-109.5 48.5zM297 503q107 0 182 -74t75 -183t-75 -182.5t-182 -73.5t-182 73.5t-75 182.5t75 183t182 74z" />
    <glyph glyph-name="p" unicode="p" horiz-adv-x="593" 
d="M543 246q0 -110 -70.5 -183t-177.5 -73q-36 0 -76.5 13.5t-65.5 33.5v-292h-103v749h103v-39q62 48 142 48q106 0 177 -73.5t71 -183.5zM439 246q0 75 -44.5 123.5t-109.5 48.5q-93 0 -132 -79q-21 -44 -21 -93t21 -93q40 -79 132 -79q65 0 109.5 49t44.5 123z" />
    <glyph glyph-name="q" unicode="q" horiz-adv-x="613" 
d="M287 -10q-106 0 -176.5 73t-70.5 183t70.5 183.5t176.5 73.5q80 0 142 -48v39h104v-749h-104v292q-25 -20 -65 -33.5t-77 -13.5zM297 418q-65 0 -109.5 -48.5t-44.5 -123.5q0 -74 44.5 -123t109.5 -49q92 0 132 79q22 42 22 93t-22 93q-39 79 -132 79z" />
    <glyph glyph-name="r" unicode="r" horiz-adv-x="357" 
d="M357 488l-22 -81q-19 11 -47 11q-61 0 -93 -51t-32 -130v-237h-103v494h103v-70q9 34 44.5 56.5t79.5 22.5t70 -15z" />
    <glyph glyph-name="s" unicode="s" horiz-adv-x="470" 
d="M407 192q19 -56 -2 -105q-20 -44 -68.5 -70.5t-112.5 -26.5h-1q-102 0 -179 75l67 67q42 -54 112 -54q37 0 65 12t36 32q2 6 3 13.5t0.5 12t-1.5 8.5l-1 5q-2 6 -6 10.5t-8 8t-12 7t-12.5 5.5t-15.5 4.5t-16 3.5t-18 4t-18 4q-43 10 -67.5 18t-52.5 29.5t-40 54.5
q-20 56 9 113q14 27 38.5 45t51 24.5t41 8.5t24.5 2q109 0 180 -73l-67 -67q-40 52 -113 52q-6 0 -17 -1t-31.5 -9.5t-28.5 -23.5q-12 -19 -4 -41q4 -10 12 -17.5t26.5 -13.5t28 -8.5t36.5 -8.5q28 -6 40.5 -9.5t36.5 -12t36.5 -17.5t27 -25t21.5 -36z" />
    <glyph glyph-name="t" unicode="t" horiz-adv-x="382" 
d="M250 82q35 -14 72 3v-80q-24 -15 -59 -15q-99 0 -143 71q-21 35 -25.5 62.5t-4.5 92.5v194h-60v84h60v156h103v-156h129v-84h-129v-194q0 -64 10.5 -91t46.5 -43z" />
    <glyph glyph-name="u" unicode="u" horiz-adv-x="590" 
d="M53 209v285h103v-275q0 -76 26.5 -110t89.5 -34q69 0 102 42t33 112v265h103v-494h-103v80q-10 -33 -50.5 -59t-84.5 -29q-104 -8 -161.5 45.5t-57.5 171.5z" />
    <glyph glyph-name="v" unicode="v" horiz-adv-x="483" 
d="M272 0h-63l-209 494h104l136 -345l136 345h103z" />
    <glyph glyph-name="w" unicode="w" horiz-adv-x="768" 
d="M655 494h103l-188 -494h-63l-123 320l-122 -320h-63l-189 494h104l117 -345l103 304l13 41h74l14 -41l103 -304z" />
    <glyph glyph-name="x" unicode="x" horiz-adv-x="485" 
d="M467 494l-175 -247l175 -247h-118l-110 165l-111 -165h-118l176 247l-176 247h118l111 -165l110 165h118z" />
    <glyph glyph-name="y" unicode="y" horiz-adv-x="509" 
d="M489 494q-125 -296 -208 -494q-59 -140 -106 -203t-112 -63q-42 0 -93 30l31 90q17 -15 38 -20q16 -5 31 0.5t28.5 20t24.5 30.5t22.5 41.5t19 43.5t17.5 44.5t15 37.5l-187 442h104l136 -324l135 324h104z" />
    <glyph glyph-name="z" unicode="z" horiz-adv-x="475" 
d="M405 494v-88l-249 -322h249v-84h-355v94l248 316h-248v84h355z" />
    <glyph glyph-name="braceleft" unicode="{" horiz-adv-x="471" 
d="M350 -12q36 -35 121 -33v-104h-10q-118 0 -184 63q-45 45 -57 117q-7 38 -7 116q1 43 0 64t-8.5 46.5t-22.5 39.5q-30 29 -98 27h-4l2 52l-2 51l2 1h2q67 -3 98 26q15 14 22.5 40t8.5 47t0 63q0 78 7 116q12 72 57 117q66 66 194 63v-104q-85 2 -121 -33q-20 -21 -28 -61
q-5 -29 -5 -97q1 -53 -1 -83t-17 -73t-46 -71l-2 -2l2 -2q31 -29 46 -72t17 -73t1 -83q0 -68 5 -97q7 -39 28 -61z" />
    <glyph glyph-name="braceright" unicode="}" horiz-adv-x="471" 
d="M0 -46q85 -2 121 33q21 22 28 61q5 29 5 97q-1 53 1 83t17 73t46 72l2 2l-2 2q-31 28 -46 71t-17 73t-1 83q0 68 -5 97q-7 41 -28 61q-36 35 -121 33v104q128 3 194 -63q45 -45 57 -117q7 -38 7 -116q-1 -42 0 -63t8.5 -47t22.5 -40q31 -29 98 -26q1 0 3 -1h1l-2 -51
l2 -52h-4q-68 2 -98 -27q-15 -14 -22.5 -39.5t-8.5 -46.5t0 -64q0 -78 -7 -116q-12 -72 -57 -117q-66 -63 -184 -63h-10v104z" />
    <glyph glyph-name="sterling" unicode="&#xa3;" horiz-adv-x="559" 
d="M273 209q-16 -48 -65 -117h301v-92h-458q0 23 10.5 49.5t21 43.5t32.5 48q58 83 67 126h-132v64h130q-5 15 -7 19q-82 196 22 325q63 79 171 85q75 3 143 -42l-58 -87q-36 25 -81 25q-7 0 -19.5 -2t-36 -13.5t-38.5 -30.5q-30 -38 -34 -67q-10 -63 27 -153q13 -30 17 -59
h174v-64h-173q-3 -26 -14 -58z" />
    <glyph glyph-name="yen" unicode="&#xa5;" horiz-adv-x="649" 
d="M570 140h-180v-140h-111v140h-184v64h184v68h-184v64h158l-283 414h135l229 -350l230 350h135l-283 -414h154v-64h-180v-68h180v-64z" />
    <glyph glyph-name="dieresis" unicode="&#xa8;" 
d="M224 675q0 -24 -16.5 -40.5t-40.5 -16.5q-23 0 -39.5 16.5t-16.5 40.5q0 23 16.5 39.5t39.5 16.5q24 0 40.5 -16.5t16.5 -39.5zM389 675q0 -24 -16.5 -40.5t-40.5 -16.5q-23 0 -39.5 16.5t-16.5 40.5q0 23 16.5 39.5t39.5 16.5q24 0 40.5 -16.5t16.5 -39.5z" />
    <glyph glyph-name="guillemotleft" unicode="&#xab;" horiz-adv-x="425" 
d="M50 533q0 21 13 41l94 135h33l-36 -114q36 -19 36 -62q0 -29 -20 -49.5t-49 -20.5q-30 0 -50.5 20.5t-20.5 49.5zM235 533q0 21 13 41l94 135h33l-36 -114q36 -19 36 -62q0 -29 -20 -49.5t-49 -20.5q-30 0 -50.5 20.5t-20.5 49.5z" />
    <glyph glyph-name="degree" unicode="&#xb0;" horiz-adv-x="316" 
d="M157 709q-31 0 -54 -27.5t-23 -64.5q0 -36 23 -63t54 -27t54.5 27t23.5 63q0 37 -23 64.5t-55 27.5zM157 750q53 0 90.5 -39t37.5 -94q0 -54 -37.5 -92.5t-90.5 -38.5q-52 0 -89.5 38.5t-37.5 92.5q0 55 37 94t90 39z" />
    <glyph glyph-name="plusminus" unicode="&#xb1;" 
d="M446 274h-136v-136h-84v136h-136v84h136v136h84v-136h136v-84zM446 0h-356v84h356v-84z" />
    <glyph glyph-name="acute" unicode="&#xb4;" 
d="M223 584h-86l87 166l97 -50z" />
    <glyph glyph-name="periodcentered" unicode="&#xb7;" horiz-adv-x="261" 
d="M201 61q0 -30 -20.5 -50.5t-50.5 -20.5q-29 0 -49.5 20.5t-20.5 50.5q0 29 20.5 49t49.5 20q30 0 50.5 -20t20.5 -49z" />
    <glyph glyph-name="cedilla" unicode="&#xb8;" horiz-adv-x="217" 
d="M105 -49q35 -2 58.5 -28t23.5 -63q0 -38 -25.5 -64.5t-62.5 -26.5q-38 0 -64 29l44 57q8 -11 21 -11q11 0 18.5 9t7.5 22t-7.5 22t-18.5 9q-13 0 -21 -11l-52 31l84 95l33 -31z" />
    <glyph glyph-name="guillemotright" unicode="&#xbb;" horiz-adv-x="424" 
d="M200 641q0 -25 -12 -41l-94 -136h-34l37 114q-37 20 -37 63q0 29 20 49t49 20q30 0 50.5 -20t20.5 -49zM384 641q0 -25 -12 -41l-94 -136h-34l37 114q-37 20 -37 63q0 29 20 49t49 20q30 0 50.5 -20t20.5 -49z" />
    <glyph glyph-name="Agrave" unicode="&#xc0;" horiz-adv-x="704" 
d="M386 750l308 -750h-120l-75 196h-295l-74 -196h-120l308 750h68zM239 288h225l-112 296zM386 830h-86l-98 116l97 50z" />
    <glyph glyph-name="Aacute" unicode="&#xc1;" horiz-adv-x="704" 
d="M386 750l308 -750h-120l-75 196h-295l-74 -196h-120l308 750h68zM239 288h225l-112 296zM405 830h-86l87 166l97 -50z" />
    <glyph glyph-name="Acircumflex" unicode="&#xc2;" horiz-adv-x="704" 
d="M386 750l308 -750h-120l-75 196h-295l-74 -196h-120l308 750h68zM239 288h225l-112 296zM410 996l107 -166h-86l-78 96l-78 -96h-86l107 166h114z" />
    <glyph glyph-name="Adieresis" unicode="&#xc4;" horiz-adv-x="704" 
d="M386 750l308 -750h-120l-75 196h-295l-74 -196h-120l308 750h68zM239 288h225l-112 296zM327 887q0 -24 -16.5 -40.5t-40.5 -16.5q-23 0 -39.5 16.5t-16.5 40.5q0 23 16.5 39.5t39.5 16.5q24 0 40.5 -16.5t16.5 -39.5zM492 887q0 -24 -16.5 -40.5t-40.5 -16.5
q-23 0 -39.5 16.5t-16.5 40.5q0 23 16.5 39.5t39.5 16.5q24 0 40.5 -16.5t16.5 -39.5z" />
    <glyph glyph-name="Ccedilla" unicode="&#xc7;" horiz-adv-x="769" 
d="M402 -221q-38 0 -64 29l44 57q8 -11 21 -11q11 0 18.5 9t7.5 22t-7.5 22t-18.5 9q-13 0 -21 -11l-52 31q5 5 51 57q-142 20 -236.5 127t-94.5 255q0 162 111 273t270 111q173 0 278 -115l-73 -73q-30 45 -85.5 70.5t-119.5 25.5q-114 0 -192 -87t-78 -205
q0 -72 32 -138.5t95.5 -110.5t142.5 -44q119 0 204 95l73 -73q-100 -111 -271 -114l-29 -29q35 -2 58.5 -28t23.5 -63q0 -38 -25.5 -64.5t-62.5 -26.5z" />
    <glyph glyph-name="Egrave" unicode="&#xc8;" horiz-adv-x="668" 
d="M181 92h407v-92h-518v750h499v-92h-388v-222h317v-93h-317v-251zM384 830h-86l-98 116l97 50z" />
    <glyph glyph-name="Eacute" unicode="&#xc9;" horiz-adv-x="668" 
d="M181 92h407v-92h-518v750h499v-92h-388v-222h317v-93h-317v-251zM375 830h-86l87 166l97 -50z" />
    <glyph glyph-name="Ecircumflex" unicode="&#xca;" horiz-adv-x="668" 
d="M181 92h407v-92h-518v750h499v-92h-388v-222h317v-93h-317v-251zM387 996l107 -166h-86l-78 96l-78 -96h-86l107 166h114z" />
    <glyph glyph-name="Edieresis" unicode="&#xcb;" horiz-adv-x="668" 
d="M181 92h407v-92h-518v750h499v-92h-388v-222h317v-93h-317v-251zM302 887q0 -24 -16.5 -40.5t-40.5 -16.5q-23 0 -39.5 16.5t-16.5 40.5q0 23 16.5 39.5t39.5 16.5q24 0 40.5 -16.5t16.5 -39.5zM467 887q0 -24 -16.5 -40.5t-40.5 -16.5q-23 0 -39.5 16.5t-16.5 40.5
q0 23 16.5 39.5t39.5 16.5q24 0 40.5 -16.5t16.5 -39.5z" />
    <glyph glyph-name="Igrave" unicode="&#xcc;" horiz-adv-x="384" 
d="M284 0v750h-111v-750h111zM284 830h-86l-98 116l97 50z" />
    <glyph glyph-name="Iacute" unicode="&#xcd;" horiz-adv-x="384" 
d="M211 0v750h-111v-750h111zM186 830h-86l87 166l97 -50z" />
    <glyph glyph-name="Icircumflex" unicode="&#xce;" horiz-adv-x="528" 
d="M319 0v750h-111v-750h111zM321 996l107 -166h-86l-78 96l-78 -96h-86l107 166h114z" />
    <glyph glyph-name="Idieresis" unicode="&#xcf;" horiz-adv-x="478" 
d="M294 750v-750h-111v750h111zM213 887q0 -24 -16.5 -40.5t-40.5 -16.5q-23 0 -39.5 16.5t-16.5 40.5q0 23 16.5 39.5t39.5 16.5q24 0 40.5 -16.5t16.5 -39.5zM378 887q0 -24 -16.5 -40.5t-40.5 -16.5q-23 0 -39.5 16.5t-16.5 40.5q0 23 16.5 39.5t39.5 16.5
q24 0 40.5 -16.5t16.5 -39.5z" />
    <glyph glyph-name="Ograve" unicode="&#xd2;" horiz-adv-x="862" 
d="M451 830h-86l-98 116l97 50zM431 667q-116 0 -193 -87.5t-77 -204.5q0 -118 77 -205.5t193 -87.5t193 87.5t77 205.5q0 117 -77 204.5t-193 87.5zM431 759q159 0 270 -111t111 -273q0 -163 -111 -274t-270 -111t-270 111t-111 274q0 162 111 273t270 111z" />
    <glyph glyph-name="Oacute" unicode="&#xd3;" horiz-adv-x="862" 
d="M505 830h-86l87 166l97 -50zM431 667q-116 0 -193 -87.5t-77 -204.5q0 -118 77 -205.5t193 -87.5t193 87.5t77 205.5q0 117 -77 204.5t-193 87.5zM431 759q159 0 270 -111t111 -273q0 -163 -111 -274t-270 -111t-270 111t-111 274q0 162 111 273t270 111z" />
    <glyph glyph-name="Ocircumflex" unicode="&#xd4;" horiz-adv-x="862" 
d="M488 996l107 -166h-86l-78 96l-78 -96h-86l107 166h114zM431 667q-116 0 -193 -87.5t-77 -204.5q0 -118 77 -205.5t193 -87.5t193 87.5t77 205.5q0 117 -77 204.5t-193 87.5zM431 759q159 0 270 -111t111 -273q0 -163 -111 -274t-270 -111t-270 111t-111 274
q0 162 111 273t270 111z" />
    <glyph glyph-name="Odieresis" unicode="&#xd6;" horiz-adv-x="862" 
d="M403 897q0 -24 -16.5 -40.5t-40.5 -16.5q-23 0 -39.5 16.5t-16.5 40.5q0 23 16.5 39.5t39.5 16.5q24 0 40.5 -16.5t16.5 -39.5zM568 897q0 -24 -16.5 -40.5t-40.5 -16.5q-23 0 -39.5 16.5t-16.5 40.5q0 23 16.5 39.5t39.5 16.5q24 0 40.5 -16.5t16.5 -39.5zM431 667
q-116 0 -193 -87.5t-77 -204.5q0 -118 77 -205.5t193 -87.5t193 87.5t77 205.5q0 117 -77 204.5t-193 87.5zM431 759q159 0 270 -111t111 -273q0 -163 -111 -274t-270 -111t-270 111t-111 274q0 162 111 273t270 111z" />
    <glyph glyph-name="multiply" unicode="&#xd7;" horiz-adv-x="484" 
d="M393 343l-97 -96l97 -96l-60 -59l-96 96l-96 -96l-60 59l97 96l-97 96l60 60l96 -96l96 96z" />
    <glyph glyph-name="Ugrave" unicode="&#xd9;" horiz-adv-x="782" 
d="M458 830h-86l-98 116l97 50zM581 750h111v-456q0 -41 -6.5 -78.5t-26.5 -80t-52 -73.5t-87.5 -51.5t-127.5 -20.5t-127.5 20.5t-88 51.5t-52.5 73t-27 80.5t-7 78.5v456h111v-456q0 -20 2 -40t13 -53.5t30 -57.5t57 -42.5t89 -18.5q37 0 67.5 9.5t49.5 24.5t33.5 36
t21.5 39.5t11 41t5 35.5t1 26v456z" />
    <glyph glyph-name="Uacute" unicode="&#xda;" horiz-adv-x="782" 
d="M411 830h-86l87 166l97 -50zM581 750h111v-456q0 -41 -6.5 -78.5t-26.5 -80t-52 -73.5t-87.5 -51.5t-127.5 -20.5t-127.5 20.5t-88 51.5t-52.5 73t-27 80.5t-7 78.5v456h111v-456q0 -20 2 -40t13 -53.5t30 -57.5t57 -42.5t89 -18.5q37 0 67.5 9.5t49.5 24.5t33.5 36
t21.5 39.5t11 41t5 35.5t1 26v456z" />
    <glyph glyph-name="Ucircumflex" unicode="&#xdb;" horiz-adv-x="782" 
d="M447 996l107 -166h-86l-78 96l-78 -96h-86l107 166h114zM581 750h111v-456q0 -41 -6.5 -78.5t-26.5 -80t-52 -73.5t-87.5 -51.5t-127.5 -20.5t-127.5 20.5t-88 51.5t-52.5 73t-27 80.5t-7 78.5v456h111v-456q0 -20 2 -40t13 -53.5t30 -57.5t57 -42.5t89 -18.5
q37 0 67.5 9.5t49.5 24.5t33.5 36t21.5 39.5t11 41t5 35.5t1 26v456z" />
    <glyph glyph-name="Udieresis" unicode="&#xdc;" horiz-adv-x="782" 
d="M581 750h111v-456q0 -41 -6.5 -78.5t-26.5 -80t-52 -73.5t-87.5 -51.5t-127.5 -20.5t-127.5 20.5t-88 51.5t-52.5 73t-27 80.5t-7 78.5v456h111v-456q0 -20 2 -40t13 -53.5t30 -57.5t57 -42.5t89 -18.5q37 0 67.5 9.5t49.5 24.5t33.5 36t21.5 39.5t11 41t5 35.5t1 26v456
zM362 887q0 -24 -16.5 -40.5t-40.5 -16.5q-23 0 -39.5 16.5t-16.5 40.5q0 23 16.5 39.5t39.5 16.5q24 0 40.5 -16.5t16.5 -39.5zM527 887q0 -24 -16.5 -40.5t-40.5 -16.5q-23 0 -39.5 16.5t-16.5 40.5q0 23 16.5 39.5t39.5 16.5q24 0 40.5 -16.5t16.5 -39.5z" />
    <glyph glyph-name="Yacute" unicode="&#xdd;" horiz-adv-x="689" 
d="M584 750h135l-309 -452v-298h-111v298l-309 452h135l229 -350zM391 830h-86l87 166l97 -50z" />
    <glyph glyph-name="agrave" unicode="&#xe0;" horiz-adv-x="540" 
d="M320 584h-86l-98 116l97 50zM271 504q98 0 148.5 -48t50.5 -111v-345h-103v54q-24 -33 -63.5 -48t-76.5 -15q-84 0 -135.5 43.5t-51.5 110.5q0 86 53.5 126.5t133.5 40.5h140v33q0 74 -96 74q-72 0 -118 -64l-71 64q77 85 189 85zM367 154v74h-126q-47 0 -74.5 -23
t-22.5 -64q8 -66 97 -66q65 0 95.5 24t30.5 55z" />
    <glyph glyph-name="aacute" unicode="&#xe1;" horiz-adv-x="540" 
d="M330 584h-86l87 166l97 -50zM271 504q98 0 148.5 -48t50.5 -111v-345h-103v54q-24 -33 -63.5 -48t-76.5 -15q-84 0 -135.5 43.5t-51.5 110.5q0 86 53.5 126.5t133.5 40.5h140v33q0 74 -96 74q-72 0 -118 -64l-71 64q77 85 189 85zM367 154v74h-126q-47 0 -74.5 -23
t-22.5 -64q8 -66 97 -66q65 0 95.5 24t30.5 55z" />
    <glyph glyph-name="acircumflex" unicode="&#xe2;" horiz-adv-x="540" 
d="M328 750l107 -166h-86l-78 96l-78 -96h-86l107 166h114zM271 504q98 0 148.5 -48t50.5 -111v-345h-103v54q-24 -33 -63.5 -48t-76.5 -15q-84 0 -135.5 43.5t-51.5 110.5q0 86 53.5 126.5t133.5 40.5h140v33q0 74 -96 74q-72 0 -118 -64l-71 64q77 85 189 85zM367 154v74
h-126q-47 0 -74.5 -23t-22.5 -64q8 -66 97 -66q65 0 95.5 24t30.5 55z" />
    <glyph glyph-name="adieresis" unicode="&#xe4;" horiz-adv-x="540" 
d="M242 675q0 -24 -16.5 -40.5t-40.5 -16.5q-23 0 -39.5 16.5t-16.5 40.5q0 23 16.5 39.5t39.5 16.5q24 0 40.5 -16.5t16.5 -39.5zM407 675q0 -24 -16.5 -40.5t-40.5 -16.5q-23 0 -39.5 16.5t-16.5 40.5q0 23 16.5 39.5t39.5 16.5q24 0 40.5 -16.5t16.5 -39.5zM271 504
q98 0 148.5 -48t50.5 -111v-345h-103v54q-24 -33 -63.5 -48t-76.5 -15q-84 0 -135.5 43.5t-51.5 110.5q0 86 53.5 126.5t133.5 40.5h140v33q0 74 -96 74q-72 0 -118 -64l-71 64q77 85 189 85zM367 154v74h-126q-47 0 -74.5 -23t-22.5 -64q8 -66 97 -66q65 0 95.5 24t30.5 55
z" />
    <glyph glyph-name="ccedilla" unicode="&#xe7;" horiz-adv-x="526" 
d="M271 -221q-38 0 -64 29l44 57q8 -11 21 -11q11 0 18.5 9t7.5 22t-7.5 22t-18.5 9q-13 0 -21 -11l-52 31l8 9q8 9 20.5 23.5t23.5 25.5q-92 18 -151.5 87t-59.5 165q0 109 75 183t182 74q121 0 189 -75l-71 -64q-40 54 -118 54q-65 0 -109.5 -48.5t-44.5 -123.5
q0 -74 44.5 -123t109.5 -49q78 0 118 55l71 -64q-63 -70 -180 -75l-29 -29q35 -2 58.5 -28t23.5 -63q0 -38 -25.5 -64.5t-62.5 -26.5z" />
    <glyph glyph-name="egrave" unicode="&#xe8;" horiz-adv-x="566" 
d="M310 584h-86l-98 116l97 50zM526 246v-37h-389q0 -63 48 -99t103 -36q36 0 71 17.5t56 47.5l71 -64q-62 -85 -198 -85q-118 0 -188 72t-70 184t67.5 184.5t180.5 72.5q209 0 244 -209q4 -21 4 -48zM139 294h279q0 58 -40 91t-100 33q-58 0 -98.5 -35t-40.5 -89z" />
    <glyph glyph-name="eacute" unicode="&#xe9;" horiz-adv-x="566" 
d="M330 584h-86l87 166l97 -50zM526 246v-37h-389q0 -63 48 -99t103 -36q36 0 71 17.5t56 47.5l71 -64q-62 -85 -198 -85q-118 0 -188 72t-70 184t67.5 184.5t180.5 72.5q209 0 244 -209q4 -21 4 -48zM139 294h279q0 58 -40 91t-100 33q-58 0 -98.5 -35t-40.5 -89z" />
    <glyph glyph-name="ecircumflex" unicode="&#xea;" horiz-adv-x="566" 
d="M336 750l107 -166h-86l-78 96l-78 -96h-86l107 166h114zM526 246v-37h-389q0 -63 48 -99t103 -36q36 0 71 17.5t56 47.5l71 -64q-62 -85 -198 -85q-118 0 -188 72t-70 184t67.5 184.5t180.5 72.5q209 0 244 -209q4 -21 4 -48zM139 294h279q0 58 -40 91t-100 33
q-58 0 -98.5 -35t-40.5 -89z" />
    <glyph glyph-name="edieresis" unicode="&#xeb;" horiz-adv-x="566" 
d="M243 675q0 -24 -16.5 -40.5t-40.5 -16.5q-23 0 -39.5 16.5t-16.5 40.5q0 23 16.5 39.5t39.5 16.5q24 0 40.5 -16.5t16.5 -39.5zM408 675q0 -24 -16.5 -40.5t-40.5 -16.5q-23 0 -39.5 16.5t-16.5 40.5q0 23 16.5 39.5t39.5 16.5q24 0 40.5 -16.5t16.5 -39.5zM526 246v-37
h-389q0 -63 48 -99t103 -36q36 0 71 17.5t56 47.5l71 -64q-62 -85 -198 -85q-118 0 -188 72t-70 184t67.5 184.5t180.5 72.5q209 0 244 -209q4 -21 4 -48zM139 294h279q0 58 -40 91t-100 33q-58 0 -98.5 -35t-40.5 -89z" />
    <glyph glyph-name="igrave" unicode="&#xec;" horiz-adv-x="335" 
d="M254 584h-86l-98 116l97 50zM255 0v494h-103v-494h103z" />
    <glyph glyph-name="iacute" unicode="&#xed;" horiz-adv-x="334" 
d="M173 0v494h-103v-494h103zM156 584h-86l87 166l97 -50z" />
    <glyph glyph-name="icircumflex" unicode="&#xee;" horiz-adv-x="478" 
d="M285 0v494h-103v-494h103zM291 750l107 -166h-86l-78 96l-78 -96h-86l107 166h114z" />
    <glyph glyph-name="idieresis" unicode="&#xef;" horiz-adv-x="428" 
d="M250 494v-494h-103v494h103zM183 675q0 -24 -16.5 -40.5t-40.5 -16.5q-23 0 -39.5 16.5t-16.5 40.5q0 23 16.5 39.5t39.5 16.5q24 0 40.5 -16.5t16.5 -39.5zM348 675q0 -24 -16.5 -40.5t-40.5 -16.5q-23 0 -39.5 16.5t-16.5 40.5q0 23 16.5 39.5t39.5 16.5
q24 0 40.5 -16.5t16.5 -39.5z" />
    <glyph glyph-name="ograve" unicode="&#xf2;" horiz-adv-x="604" 
d="M356 584h-86l-98 116l97 50zM297 418q-65 0 -109.5 -48.5t-44.5 -123.5q0 -74 44.5 -123t109.5 -49t109.5 49t44.5 123q0 75 -44.5 123.5t-109.5 48.5zM297 503q107 0 182 -74t75 -183t-75 -182.5t-182 -73.5t-182 73.5t-75 182.5t75 183t182 74z" />
    <glyph glyph-name="oacute" unicode="&#xf3;" horiz-adv-x="604" 
d="M350 584h-86l87 166l97 -50zM297 418q-65 0 -109.5 -48.5t-44.5 -123.5q0 -74 44.5 -123t109.5 -49t109.5 49t44.5 123q0 75 -44.5 123.5t-109.5 48.5zM297 503q107 0 182 -74t75 -183t-75 -182.5t-182 -73.5t-182 73.5t-75 182.5t75 183t182 74z" />
    <glyph glyph-name="ocircumflex" unicode="&#xf4;" horiz-adv-x="604" 
d="M356 750l107 -166h-86l-78 96l-78 -96h-86l107 166h114zM297 418q-65 0 -109.5 -48.5t-44.5 -123.5q0 -74 44.5 -123t109.5 -49t109.5 49t44.5 123q0 75 -44.5 123.5t-109.5 48.5zM297 503q107 0 182 -74t75 -183t-75 -182.5t-182 -73.5t-182 73.5t-75 182.5t75 183
t182 74z" />
    <glyph glyph-name="odieresis" unicode="&#xf6;" horiz-adv-x="604" 
d="M270 675q0 -24 -16.5 -40.5t-40.5 -16.5q-23 0 -39.5 16.5t-16.5 40.5q0 23 16.5 39.5t39.5 16.5q24 0 40.5 -16.5t16.5 -39.5zM435 675q0 -24 -16.5 -40.5t-40.5 -16.5q-23 0 -39.5 16.5t-16.5 40.5q0 23 16.5 39.5t39.5 16.5q24 0 40.5 -16.5t16.5 -39.5zM297 418
q-65 0 -109.5 -48.5t-44.5 -123.5q0 -74 44.5 -123t109.5 -49t109.5 49t44.5 123q0 75 -44.5 123.5t-109.5 48.5zM297 503q107 0 182 -74t75 -183t-75 -182.5t-182 -73.5t-182 73.5t-75 182.5t75 183t182 74z" />
    <glyph glyph-name="ugrave" unicode="&#xf9;" horiz-adv-x="607" 
d="M354 584h-86l-98 116l97 50zM70 209v285h103v-275q0 -76 26.5 -110t89.5 -34q69 0 102 42t33 112v265h103v-494h-103v80q-10 -33 -50.5 -59t-84.5 -29q-104 -8 -161.5 45.5t-57.5 171.5z" />
    <glyph glyph-name="uacute" unicode="&#xfa;" horiz-adv-x="607" 
d="M340 584h-86l87 166l97 -50zM70 209v285h103v-275q0 -76 26.5 -110t89.5 -34q69 0 102 42t33 112v265h103v-494h-103v80q-10 -33 -50.5 -59t-84.5 -29q-104 -8 -161.5 45.5t-57.5 171.5z" />
    <glyph glyph-name="ucircumflex" unicode="&#xfb;" horiz-adv-x="607" 
d="M355 750l107 -166h-86l-78 96l-78 -96h-86l107 166h114zM70 209v285h103v-275q0 -76 26.5 -110t89.5 -34q69 0 102 42t33 112v265h103v-494h-103v80q-10 -33 -50.5 -59t-84.5 -29q-104 -8 -161.5 45.5t-57.5 171.5z" />
    <glyph glyph-name="udieresis" unicode="&#xfc;" horiz-adv-x="607" 
d="M271 671q0 -24 -16.5 -40.5t-40.5 -16.5q-23 0 -39.5 16.5t-16.5 40.5q0 23 16.5 39.5t39.5 16.5q24 0 40.5 -16.5t16.5 -39.5zM436 671q0 -24 -16.5 -40.5t-40.5 -16.5q-23 0 -39.5 16.5t-16.5 40.5q0 23 16.5 39.5t39.5 16.5q24 0 40.5 -16.5t16.5 -39.5zM70 209v285
h103v-275q0 -76 26.5 -110t89.5 -34q69 0 102 42t33 112v265h103v-494h-103v80q-10 -33 -50.5 -59t-84.5 -29q-104 -8 -161.5 45.5t-57.5 171.5z" />
    <glyph glyph-name="yacute" unicode="&#xfd;" horiz-adv-x="509" 
d="M289 584h-86l87 166l97 -50zM489 494q-125 -296 -208 -494q-59 -140 -106 -203t-112 -63q-42 0 -93 30l31 90q17 -15 38 -20q16 -5 31 0.5t28.5 20t24.5 30.5t22.5 41.5t19 43.5t17.5 44.5t15 37.5l-187 442h104l136 -324l135 324h104z" />
    <glyph glyph-name="ydieresis" unicode="&#xff;" horiz-adv-x="509" 
d="M225 671q0 -24 -16.5 -40.5t-40.5 -16.5q-23 0 -39.5 16.5t-16.5 40.5q0 23 16.5 39.5t39.5 16.5q24 0 40.5 -16.5t16.5 -39.5zM390 671q0 -24 -16.5 -40.5t-40.5 -16.5q-23 0 -39.5 16.5t-16.5 40.5q0 23 16.5 39.5t39.5 16.5q24 0 40.5 -16.5t16.5 -39.5zM489 494
q-125 -296 -208 -494q-59 -140 -106 -203t-112 -63q-42 0 -93 30l31 90q17 -15 38 -20q16 -5 31 0.5t28.5 20t24.5 30.5t22.5 41.5t19 43.5t17.5 44.5t15 37.5l-187 442h104l136 -324l135 324h104z" />
    <glyph glyph-name="Ydieresis" unicode="&#x178;" horiz-adv-x="689" 
d="M584 750h135l-309 -452v-298h-111v298l-309 452h135l229 -350zM328 888q0 -24 -16.5 -40.5t-40.5 -16.5q-23 0 -39.5 16.5t-16.5 40.5q0 23 16.5 39.5t39.5 16.5q24 0 40.5 -16.5t16.5 -39.5zM493 888q0 -24 -16.5 -40.5t-40.5 -16.5q-23 0 -39.5 16.5t-16.5 40.5
q0 23 16.5 39.5t39.5 16.5q24 0 40.5 -16.5t16.5 -39.5z" />
    <glyph glyph-name="hungarumlaut" unicode="&#x2dd;" 
 />
    <glyph glyph-name="endash" unicode="&#x2013;" horiz-adv-x="833" 
 />
    <glyph glyph-name="quoteleft" unicode="&#x2018;" horiz-adv-x="230" 
d="M50 533q0 21 13 41l94 135h33l-36 -114q36 -19 36 -62q0 -29 -20 -49.5t-49 -20.5q-30 0 -50.5 20.5t-20.5 49.5z" />
    <glyph glyph-name="quoteright" unicode="&#x2019;" horiz-adv-x="250" 
d="M200 641q0 -25 -12 -41l-94 -136h-34l37 114q-37 20 -37 63q0 29 20 49t49 20q30 0 50.5 -20t20.5 -49z" />
    <glyph glyph-name="quotedblleft" unicode="&#x201c;" horiz-adv-x="427" 
d="M50 533q0 21 13 41l94 135h33l-36 -114q36 -19 36 -62q0 -29 -20 -49.5t-49 -20.5q-30 0 -50.5 20.5t-20.5 49.5zM235 533q0 21 13 41l94 135h33l-36 -114q36 -19 36 -62q0 -29 -20 -49.5t-49 -20.5q-30 0 -50.5 20.5t-20.5 49.5z" />
    <glyph glyph-name="quotedblright" unicode="&#x201d;" horiz-adv-x="423" 
d="M200 641q0 -25 -12 -41l-94 -136h-34l37 114q-37 20 -37 63q0 29 20 49t49 20q30 0 50.5 -20t20.5 -49zM384 641q0 -25 -12 -41l-94 -136h-34l37 114q-37 20 -37 63q0 29 20 49t49 20q30 0 50.5 -20t20.5 -49z" />
    <glyph glyph-name="bullet" unicode="&#x2022;" horiz-adv-x="301" 
d="M211 372q0 -30 -20.5 -50.5t-50.5 -20.5q-29 0 -49.5 20.5t-20.5 50.5q0 29 20.5 49t49.5 20q30 0 50.5 -20t20.5 -49z" />
    <glyph glyph-name="ellipsis" unicode="&#x2026;" horiz-adv-x="783" 
d="M201 61q0 -30 -20.5 -50.5t-50.5 -20.5q-29 0 -49.5 20.5t-20.5 50.5q0 29 20.5 49t49.5 20q30 0 50.5 -20t20.5 -49zM422 61q0 -30 -20.5 -50.5t-50.5 -20.5q-29 0 -49.5 20.5t-20.5 50.5q0 29 20.5 49t49.5 20q30 0 50.5 -20t20.5 -49zM643 61q0 -30 -20.5 -50.5
t-50.5 -20.5q-29 0 -49.5 20.5t-20.5 50.5q0 29 20.5 49t49.5 20q30 0 50.5 -20t20.5 -49z" />
    <glyph glyph-name="Euro" unicode="&#x20ac;" horiz-adv-x="808" 
d="M533 221h-276q33 -62 95 -100.5t138 -38.5q119 0 204 95l73 -73q-103 -114 -277 -114q-118 0 -212.5 62t-138.5 169h-81v64h61q-9 38 -10 70h-51v64h53q16 147 123.5 243.5t255.5 96.5q173 0 278 -115l-73 -73q-30 45 -85.5 70.5t-119.5 25.5q-103 0 -177.5 -71
t-89.5 -177h310v-64h-313q4 -44 12 -70h301v-64z" />
    <glyph glyph-name="minus" unicode="&#x2212;" horiz-adv-x="536" 
d="M446 205h-356v84h356v-84z" />
    </font>
</defs>
</svg>
