<?xml version="1.0" standalone="no"?>
<!DOCTYPE svg PUBLIC "-//W3C//DTD SVG 1.1//EN" "http://www.w3.org/Graphics/SVG/1.1/DTD/svg11.dtd" >
<svg>
<metadata>
Created by FontForge 20120731 at Fri Jul 15 20:47:46 2016
 By ,,,
Copyright (c) 2015 by Mathieu Desjardins. All rights reserved.
</metadata>
<defs>
<font id="PierSans-BoldItalic" horiz-adv-x="500" >
  <font-face 
    font-family="Pier Sans"
    font-weight="700"
    font-style="italic"
    font-stretch="normal"
    units-per-em="1000"
    panose-1="2 0 8 5 4 0 0 2 0 3"
    ascent="745"
    descent="-255"
    x-height="494"
    cap-height="750"
    bbox="-90 -249 1205 1006"
    underline-thickness="0"
    underline-position="0"
    unicode-range="U+0020-2212"
  />
<missing-glyph 
d="M-32 -239l245 989h431l-246 -989h-430zM93 -145h225l200 801h-225z" />
    <glyph glyph-name=".notdef" 
d="M-32 -239l245 989h431l-246 -989h-430zM93 -145h225l200 801h-225z" />
    <glyph glyph-name=".null" horiz-adv-x="0" 
 />
    <glyph glyph-name="nonmarkingreturn" horiz-adv-x="333" 
 />
    <glyph glyph-name="space" unicode=" " horiz-adv-x="300" 
 />
    <glyph glyph-name="exclam" unicode="!" horiz-adv-x="323" 
d="M428 750l-150 -556h-147l126 556h171zM254 67q-8 -32 -37.5 -54.5t-63.5 -22.5t-52 22.5t-10 54.5t37 54t63 22t52.5 -22t10.5 -54z" />
    <glyph glyph-name="quotedbl" unicode="&#x22;" horiz-adv-x="423" 
d="M377 624q-6 -28 -30 -52l1 1l-129 -138h-86l71 122q-23 28 -14 67q9 37 42.5 62.5t72.5 25.5q40 0 60.5 -25.5t11.5 -62.5zM609 624q-6 -26 -30 -52l1 1l-130 -138h-85l70 122q-23 30 -14 67t43 62.5t72 25.5q40 0 61 -25.5t12 -62.5z" />
    <glyph glyph-name="numbersign" unicode="#" horiz-adv-x="967" 
d="M948 370h-176l-53 -84h121l-35 -140h-172l-89 -146h-157l89 146h-112l-89 -146h-158l92 146h-92l35 140h142l53 84h-87l35 140h138l92 151h156l-93 -151h113l93 151h156l-93 -151h126zM562 286l53 84h-112l-51 -84h110z" />
    <glyph glyph-name="dollar" unicode="$" horiz-adv-x="657" 
d="M363 540q-3 -12 -3 -23l1 1q0 -5 1 -9.5t4 -8t4 -5.5t6 -5.5t6.5 -4.5t8.5 -4.5l9 -4.5l35 140q-35 -13 -55 -39q-11 -16 -17 -37zM517 235l-5 8q0 6 -2.5 11.5t-4.5 9t-7 7.5t-8 6t-10 6t-10 6l-38 -152q41 16 65 51q7 10 13 29q4 18 7 18zM367 -121h-116l29 114
q-136 18 -217 139l140 111l16 -45q32 -48 95 -67l50 199q-34 12 -57 22t-49 27t-41 40t-19 53q-3 34 5 69q15 54 49 98q74 96 218 116l29 116h116l-30 -120q119 -23 192 -135l-135 -108q-15 34 -21 42q-27 42 -71 62l-44 -177q38 -13 59 -22.5t48.5 -26t42.5 -40.5t20 -56
q6 -26 -5 -73q-11 -43 -38 -81h1q-36 -54 -98.5 -89.5t-138.5 -48.5z" />
    <glyph glyph-name="percent" unicode="%" horiz-adv-x="925" 
d="M355 619q-20 0 -37.5 -16t-22.5 -37t4.5 -36t29.5 -15q19 0 37 15t23 36t-5 37t-29 16zM387 750q78 0 120 -54t23 -130q-20 -76 -88 -129.5t-146 -53.5t-119.5 53.5t-22.5 129.5t87 130t146 54zM728 234q-19 0 -37 -15t-23 -36q-5 -22 5 -37.5t29 -15.5q20 0 38 15.5
t23 37.5q5 21 -5 36t-30 15zM761 366q79 0 120.5 -53.5t22.5 -129.5t-87.5 -130t-147.5 -54q-78 0 -119 54t-22 130t87 129.5t146 53.5zM377 0h-158l463 750h156z" />
    <glyph glyph-name="ampersand" unicode="&#x26;" horiz-adv-x="737" 
d="M731 0h-202l-30 44q-93 -53 -222 -53q-112 1 -171 76.5t-31 187.5q16 65 60 123t104 96q-19 44 -5 102q20 79 88 130.5t147 51.5q80 0 122.5 -51.5t22.5 -130.5q-16 -65 -72 -121l-4 -3q-4 -4 -10 -9t-14.5 -11t-20.5 -13t-25 -13l81 -124q24 50 25 53l144 -27
q-30 -87 -89 -151q12 -17 49 -76t53 -81zM436 623q-16 0 -30 -13.5t-19 -33.5t2 -34t23 -14t30.5 14t19.5 34q5 19 -2.5 33t-23.5 14zM429 156q-23 35 -65.5 101t-64.5 101q-55 -39 -71 -103q-14 -53 11 -91.5t73 -38.5q54 0 117 31z" />
    <glyph glyph-name="quotesingle" unicode="'" horiz-adv-x="250" 
d="M375 624q-6 -26 -30 -52l1 1l-130 -138h-85l70 122q-23 28 -14 67q9 37 42.5 62.5t72.5 25.5q40 0 61 -25.5t12 -62.5z" />
    <glyph glyph-name="parenleft" unicode="(" horiz-adv-x="368" 
d="M295 332q-18 -73 -18 -138.5t10.5 -105.5t30.5 -75.5t31 -47.5t22 -22l-97 -120q-217 187 -138 509q80 321 392 507l37 -118q-16 -9 -33.5 -22t-54.5 -48t-67.5 -75t-63.5 -105.5t-51 -138.5z" />
    <glyph glyph-name="parenright" unicode=")" horiz-adv-x="388" 
d="M225 332q18 73 18 138.5t-10.5 105.5t-30 75.5t-30.5 47.5t-22 22l96 118q219 -185 139 -507t-392 -509l-36 120q15 9 33 22t54.5 47.5t67 75t63 106t50.5 138.5z" />
    <glyph glyph-name="asterisk" unicode="*" horiz-adv-x="320" 
d="M444 637l-26 -104h-48q19 -24 22 -31l-103 -52l-10 50l-32 -51l-80 53l36 31h-47l26 104h47l-20 32l106 51l8 -47l33 47l77 -52l-36 -31h47z" />
    <glyph glyph-name="plus" unicode="+" horiz-adv-x="546" 
d="M510 222h-128l-32 -127h-135l32 127h-127l31 126h127l32 127h135l-32 -127h128z" />
    <glyph glyph-name="comma" unicode="," horiz-adv-x="190" 
d="M220 82q-8 -30 -30 -52l1 1l-129 -138h-85l70 122q-25 28 -14 67q9 37 42.5 63t71.5 26q40 0 61 -26t12 -63z" />
    <glyph glyph-name="hyphen" unicode="-" horiz-adv-x="536" 
d="M537 329l-32 -126h-390l32 126h390z" />
    <glyph glyph-name="period" unicode="." horiz-adv-x="259" 
d="M241 81q-10 -38 -44 -64t-74 -26t-60.5 26t-10.5 64q9 36 43 62t73 26q40 0 61 -26t12 -62z" />
    <glyph glyph-name="slash" unicode="/" horiz-adv-x="440" 
d="M165 0h-157l462 750h156z" />
    <glyph glyph-name="zero" unicode="0" horiz-adv-x="615" 
d="M485 758q112 0 171.5 -74.5t33.5 -184.5l1 -1l-63 -247q-28 -112 -124.5 -186t-209.5 -74q-112 0 -171 74t-33 186l62 247q29 111 125 185.5t208 74.5zM477 255l60 239q13 52 -13 85.5t-75 33.5q-48 0 -90.5 -33.5t-54.5 -85.5l-60 -239q-13 -52 12.5 -86t73.5 -34
q49 0 91.5 34t55.5 86z" />
    <glyph glyph-name="one" unicode="1" horiz-adv-x="353" 
d="M210 750h265l-186 -750h-160l153 617h-105z" />
    <glyph glyph-name="two" unicode="2" horiz-adv-x="616" 
d="M342 133h233l-33 -133h-485l33 133q159 89 236 145q182 131 209 241q10 40 -5.5 67.5t-56.5 27.5q-82 6 -143 -110l-140 32q53 117 163 180q81 46 162 43q19 -1 41 -5t60 -25.5t58 -57.5q35 -67 14 -152q-7 -30 -22.5 -60.5t-31 -55t-42.5 -54.5t-45 -48.5t-53 -47.5
t-51 -41.5t-53.5 -41.5t-47.5 -37z" />
    <glyph glyph-name="three" unicode="3" horiz-adv-x="570" 
d="M722 750l-249 -254q58 -36 82.5 -100.5t5.5 -140.5q-28 -113 -128 -188.5t-217 -75.5q-68 0 -122 36.5t-85 98.5l156 60q38 -50 87 -50q52 0 97 34t58 85t-10.5 88.5t-74.5 39.5h-132l229 233h-195l33 134h465z" />
    <glyph glyph-name="four" unicode="4" horiz-adv-x="572" 
d="M507 0h-160l46 187h-329l26 105l448 458h155l-107 -430h60l-33 -133h-60zM304 320h122l43 172z" />
    <glyph glyph-name="five" unicode="5" horiz-adv-x="583" 
d="M430 529q103 1 158.5 -69t23.5 -203q-28 -110 -129 -187.5t-210 -77.5q-134 0 -197 130l143 90q27 -67 75 -75q47 -6 97.5 29.5t64.5 90.5q13 54 -3.5 87.5t-62.5 38.5q-61 7 -98 -26h-128l97 393h402l-33 -133h-241l-25 -101q31 16 66 13z" />
    <glyph glyph-name="six" unicode="6" horiz-adv-x="615" 
d="M626 750l-181 -222q105 -7 158.5 -85.5t26.5 -187.5q-28 -112 -124.5 -187.5t-209.5 -75.5t-173 75.5t-32 187.5q16 67 72 138q103 125 289 357h174zM329 126q48 0 92 38t57 91t-12 91.5t-73 38.5q-47 0 -90.5 -38.5t-57.5 -91.5q-13 -53 12 -91t72 -38z" />
    <glyph glyph-name="seven" unicode="7" horiz-adv-x="580" 
d="M205 750h578l-604 -750h-176l499 617h-330z" />
    <glyph glyph-name="eight" unicode="8" horiz-adv-x="595" 
d="M620 566q-15 -56 -56 -103q88 -82 57 -209q-28 -112 -125 -187.5t-210 -75.5t-172.5 75.5t-31.5 187.5q31 127 159 209q-17 47 -2 103q20 80 89.5 136t148.5 56q78 0 120 -56.5t23 -135.5zM382 566q-5 -19 7 -33.5t29 -14.5q16 0 35 14.5t24 33.5q4 19 -8 33t-28 14
q-17 0 -36 -14t-23 -33zM322 135q48 0 90.5 33.5t55.5 85.5t-12.5 86t-73.5 34q-49 0 -91.5 -34t-55.5 -86t12.5 -85.5t74.5 -33.5z" />
    <glyph glyph-name="nine" unicode="9" horiz-adv-x="605" 
d="M690 495q-17 -70 -70 -138l-291 -357h-172l179 221q-105 7 -158.5 86t-26.5 188q28 112 125 188t210 76t172.5 -76t31.5 -188zM304 495q-13 -53 12 -91t72 -38q48 0 92 38t57 91t-12 91t-73 38q-47 0 -91 -38t-57 -91z" />
    <glyph glyph-name="colon" unicode=":" horiz-adv-x="241" 
d="M306 382q-10 -38 -44 -64t-74 -26q-39 0 -60 26.5t-11 63.5q9 37 43 63t73 26q40 0 61 -26t12 -63zM231 81q-10 -38 -44 -64t-74 -26q-39 0 -60 26t-11 64q9 36 43 62t73 26q40 0 61 -26t12 -62z" />
    <glyph glyph-name="semicolon" unicode=";" horiz-adv-x="269" 
d="M326 382q-10 -38 -44 -64t-74 -26q-39 0 -60 26.5t-11 63.5q9 37 43 63t73 26q40 0 61 -26t12 -63zM251 82q-8 -30 -30 -52l1 1l-129 -138h-86l71 122q-25 28 -14 67q9 37 42.5 63t71.5 26q40 0 61 -26t12 -63z" />
    <glyph glyph-name="less" unicode="&#x3c;" horiz-adv-x="484" 
d="M97 245l20 81l464 271l-39 -158l-266 -154l189 -153l-39 -158z" />
    <glyph glyph-name="equal" unicode="=" horiz-adv-x="546" 
d="M560 425l-31 -126h-390l31 126h390zM508 214l-32 -126h-390l32 126h390z" />
    <glyph glyph-name="greater" unicode="&#x3e;" horiz-adv-x="484" 
d="M514 326l-20 -81l-465 -271l39 158l266 153q-27 22 -91.5 74.5t-97.5 79.5l39 158z" />
    <glyph glyph-name="question" unicode="?" horiz-adv-x="549" 
d="M370 58q-8 -32 -37.5 -54.5t-63.5 -22.5t-51.5 22.5t-9.5 54.5t36.5 54t62.5 22t52.5 -22t10.5 -54zM399 194h-155q14 59 30.5 96t47.5 66q34 31 78.5 65t65.5 55t35 50q29 61 -14 92q-39 28 -94 8q-66 -24 -85 -99q-3 -12 -5 -25l-149 15q33 133 155 203q105 60 211 44
q102 -15 135 -92q22 -54 4 -127q-9 -35 -34.5 -70.5t-53 -59.5t-67.5 -59.5t-63 -60.5q-24 -25 -42 -101z" />
    <glyph glyph-name="at" unicode="@" horiz-adv-x="979" 
d="M482 106q52 0 95 42.5t58 104.5q15 61 -7 104t-73 43q-48 0 -92 -43t-59 -104q-16 -61 7 -104t71 -43zM821 508l-100 -400q-3 -13 1.5 -37t23.5 -24q66 0 118 202q39 159 -22 248t-216 89q-51 0 -111 -19t-121.5 -56.5t-112 -104t-71.5 -150.5q-37 -147 33 -240
q74 -98 233 -101q44 0 73 11l95 -66q-74 -48 -193 -48q-90 0 -167 35t-125.5 95t-67.5 141.5t7 174.5q29 115 117.5 215t206 158t231.5 58q187 0 278 -126t45 -311q-9 -39 -24 -79.5t-40.5 -88t-56 -83.5t-73.5 -60.5t-90 -24.5q-48 0 -87 26t-43 65q-62 -28 -112 -28
q-112 0 -170.5 80.5t-29.5 193.5q28 113 126.5 193t210.5 80q26 0 51.5 -12.5t33.5 -29.5l6 24h143z" />
    <glyph glyph-name="A" unicode="A" horiz-adv-x="694" 
d="M569 750l122 -750h-172l-26 144h-255l-94 -144h-173l495 750h103zM323 277h154l-24 216q-18 -29 -63 -104t-67 -112z" />
    <glyph glyph-name="B" unicode="B" horiz-adv-x="652" 
d="M695 548q-16 -67 -76 -127q65 -72 38 -182q-25 -99 -111.5 -169t-185.5 -70h-306l186 750h306q83 0 126.5 -59.5t22.5 -142.5zM367 617l-34 -139h149q15 4 31 24.5t22 45.5q7 28 0.5 48.5t-22.5 20.5h-146zM393 133q32 0 62 31t41 75q10 43 -3.5 73.5t-43.5 32.5h-149
l-53 -212h146z" />
    <glyph glyph-name="C" unicode="C" horiz-adv-x="769" 
d="M661 228l80 -106q-151 -131 -328 -131q-161 0 -245 110.5t-44 273.5q40 162 179.5 272.5t300.5 110.5q85 0 153.5 -33.5t110.5 -98.5l-135 -108q-18 51 -61.5 79t-100.5 28q-97 0 -179.5 -75t-107.5 -175t20 -175.5t142 -75.5q48 0 98 22t117 82z" />
    <glyph glyph-name="D" unicode="D" horiz-adv-x="792" 
d="M820 375q-39 -155 -173 -264.5t-286 -110.5h-301l186 750h301q152 -1 231.5 -110.5t41.5 -264.5zM393 133q89 1 166.5 74t100.5 168q13 63 2.5 116t-50.5 89t-99 37h-140l-120 -484h140z" />
    <glyph glyph-name="E" unicode="E" horiz-adv-x="676" 
d="M260 133h382l-33 -133h-542l186 750h524l-33 -133h-364l-40 -161h298l-33 -134h-298z" />
    <glyph glyph-name="F" unicode="F" horiz-adv-x="638" 
d="M743 617h-363l-43 -173h297l-33 -133h-297l-77 -311h-160l186 750h523z" />
    <glyph glyph-name="G" unicode="G" horiz-adv-x="872" 
d="M560 441h342l-109 -441h-160l16 65q-121 -74 -244 -74q-161 0 -245 110.5t-44 273.5q40 162 179.5 272.5t300.5 110.5q85 0 153.5 -33.5t110.5 -98.5l-132 -105q-15 45 -62 74.5t-103 29.5q-97 0 -179 -75t-107 -175q-25 -101 19.5 -176t141.5 -75q76 0 152 53t111 130
h-174z" />
    <glyph glyph-name="H" unicode="H" horiz-adv-x="735" 
d="M670 750h160l-186 -750h-160l76 308h-275l-76 -308h-160l186 750h160l-76 -308h275z" />
    <glyph glyph-name="I" unicode="I" horiz-adv-x="311" 
d="M407 750l-186 -750h-160l186 750h160z" />
    <glyph glyph-name="J" unicode="J" horiz-adv-x="618" 
d="M576 750h161l-125 -504q-27 -107 -106.5 -181t-213.5 -74q-70 0 -116 24.5t-63 63.5t-20.5 89t12.5 101h160q-38 -145 60 -145q33 0 57.5 13t38 36t19.5 38t11 35z" />
    <glyph glyph-name="K" unicode="K" horiz-adv-x="824" 
d="M992 750l-454 -317q42 -71 131 -221.5t125 -211.5h-189l-192 343l-105 -68l-68 -275h-160l186 750h160l-71 -286q371 261 406 286h231z" />
    <glyph glyph-name="L" unicode="L" horiz-adv-x="599" 
d="M241 133h314l-33 -133h-475l186 750h161z" />
    <glyph glyph-name="M" unicode="M" horiz-adv-x="1010" 
d="M1114 750l-186 -750h-160l109 438l-333 -438h-97l-115 438l-109 -438h-160l186 750h172l134 -508q287 378 386 508h173z" />
    <glyph glyph-name="N" unicode="N" horiz-adv-x="838" 
d="M929 750l-186 -750h-171l-210 492l-122 -492h-161l186 750h170l211 -493l122 493h161z" />
    <glyph glyph-name="O" unicode="O" horiz-adv-x="832" 
d="M553 625q-96 0 -179 -75.5t-108 -174.5t20.5 -175t141.5 -76q97 0 180 75.5t108 175.5t-20.5 175t-142.5 75zM586 758q161 0 245.5 -110.5t44.5 -272.5t-180 -273t-301 -111t-245 110.5t-44 273.5q40 162 179.5 272.5t300.5 110.5z" />
    <glyph glyph-name="P" unicode="P" horiz-adv-x="706" 
d="M761 468q-29 -117 -130 -199t-215 -83h-141l-46 -186h-161l186 750h302q114 -1 174 -83.5t31 -198.5zM447 319q48 0 93.5 44t60.5 105t-8.5 105t-71.5 44h-139l-74 -298h139z" />
    <glyph glyph-name="Q" unicode="Q" horiz-adv-x="894" 
d="M839 29l-126 -96l-72 108q-89 -50 -216 -50q-161 0 -245.5 110.5t-44.5 273.5q40 162 180 272.5t301 110.5q160 0 245 -110.5t45 -272.5q-34 -135 -141 -240q6 -9 74 -106zM458 124q64 0 110 25l-74 109l127 95l66 -102q42 60 58 124q25 100 -20 175t-142 75t-179.5 -75
t-107.5 -175q-13 -45 -7 -89.5t23.5 -80.5t56 -58.5t89.5 -22.5z" />
    <glyph glyph-name="R" unicode="R" horiz-adv-x="696" 
d="M754 477q-19 -77 -73 -140.5t-127 -98.5l102 -238h-165l-87 204h-135l-50 -204h-161l186 750h301q116 -1 177 -79.5t32 -193.5zM372 617l-69 -280h139q49 0 93 40t59 100q16 60 -9 100t-74 40h-139z" />
    <glyph glyph-name="S" unicode="S" horiz-adv-x="661" 
d="M446 446q23 -7 42 -14.5t40.5 -17.5t37.5 -21t33 -25.5t26 -30.5t17 -36.5t6.5 -43t-6.5 -50.5q-27 -106 -121.5 -161t-221.5 -55q-93 0 -153.5 35.5t-108.5 105.5l140 111q10 -44 55.5 -81.5t99.5 -37.5q129 2 149 83q6 23 -1 42t-26.5 32t-37 21t-44.5 17q-25 8 -45 16
t-44.5 20t-41 25t-34 31t-23.5 38t-10 46.5t6 55.5q24 97 114.5 152t195.5 55q82 0 149.5 -37.5t111.5 -104.5l-135 -108q-23 45 -63 81t-96 36q-41 0 -74.5 -18.5t-42.5 -56.5q-6 -22 1 -39t27 -29.5t36 -19.5t42 -16z" />
    <glyph glyph-name="T" unicode="T" horiz-adv-x="599" 
d="M762 750l-33 -133h-217l-153 -617h-161l153 617h-217l33 133h595z" />
    <glyph glyph-name="U" unicode="U" horiz-adv-x="732" 
d="M681 750h161l-112 -451q-10 -41 -26.5 -79.5t-48 -81.5t-72.5 -74.5t-103 -52t-137 -20.5q-74 0 -126 20.5t-77.5 52t-35.5 74.5t-7.5 81.5t12.5 79.5l112 451h160l-112 -451q-4 -17 -6.5 -33t-0.5 -44t11.5 -48t36 -35t66.5 -15t74 15t53.5 35t35 47.5t21 44.5t9.5 33z
" />
    <glyph glyph-name="V" unicode="V" horiz-adv-x="638" 
d="M347 0h-100l-103 750h171l55 -459q14 22 120.5 196t160.5 263h171z" />
    <glyph glyph-name="W" unicode="W" horiz-adv-x="1030" 
d="M340 0h-94l-81 750h168l40 -437q165 274 264 437h95l47 -436q233 395 257 436h169l-453 -750h-95l-50 436q-29 -48 -123.5 -202t-143.5 -234z" />
    <glyph glyph-name="X" unicode="X" horiz-adv-x="711" 
d="M884 750l-354 -377q2 -5 70 -155.5t97 -217.5h-168l-116 257l-234 -257h-187l363 387l-164 363h174l108 -240l226 240h185z" />
    <glyph glyph-name="Y" unicode="Y" horiz-adv-x="689" 
d="M728 750h192l-423 -454l-73 -296h-161l73 296l-197 454h192l123 -303z" />
    <glyph glyph-name="Z" unicode="Z" horiz-adv-x="745" 
d="M830 750l-34 -137l-496 -480h377l-33 -133h-567l34 137l497 480h-378l33 133h567z" />
    <glyph glyph-name="bracketleft" unicode="[" horiz-adv-x="303" 
d="M206 -28h105l-34 -133h-265l268 1072h265l-34 -133h-105z" />
    <glyph glyph-name="backslash" unicode="\" horiz-adv-x="413" 
d="M423 0h-158l-88 750h155z" />
    <glyph glyph-name="bracketright" unicode="]" horiz-adv-x="303" 
d="M-31 -28h104l200 806h-105l34 133h266l-268 -1072h-265z" />
    <glyph glyph-name="asciicircum" unicode="^" 
d="M509 736l76 -196h-137l-38 70l-74 -70h-138l176 196h135z" />
    <glyph glyph-name="underscore" unicode="_" horiz-adv-x="569" 
d="M541 0l-32 -126h-529l31 126h530z" />
    <glyph glyph-name="grave" unicode="`" 
d="M439 540h-134l-81 135l157 71z" />
    <glyph glyph-name="a" unicode="a" horiz-adv-x="538" 
d="M249 348l-94 63q103 91 229 91q103 0 143.5 -46.5t25.5 -110.5l-86 -345h-148l8 35q-51 -42 -120 -42q-187 0 -149 152q20 79 91 126.5t172 47.5h77q7 28 -8 44.5t-47 16.5q-57 0 -94 -32zM359 163l11 44h-87q-30 0 -53 -18.5t-25 -46.5q-2 -20 11.5 -29t40.5 -9
q44 0 70.5 19t31.5 40z" />
    <glyph glyph-name="b" unicode="b" horiz-adv-x="608" 
d="M435 501q108 0 156.5 -72t21.5 -183q-28 -110 -117 -182t-197 -72q-26 0 -55.5 12.5t-36.5 28.5l-8 -33h-148l181 726h148l-67 -267q16 17 55.5 29.5t66.5 12.5zM316 104q46 0 90 41.5t59 100.5t-8 101t-70 42q-48 0 -91 -45t-56 -98q-14 -53 7 -97.5t69 -44.5z" />
    <glyph glyph-name="c" unicode="c" horiz-adv-x="545" 
d="M439 177l80 -94q-104 -91 -229 -91q-109 0 -166.5 73t-30.5 181q27 109 120.5 182t202.5 73q125 0 185 -91l-128 -94q-11 63 -87 63q-47 0 -88.5 -37.5t-56.5 -95.5q-15 -57 8.5 -94.5t70.5 -37.5q78 0 119 63z" />
    <glyph glyph-name="d" unicode="d" horiz-adv-x="581" 
d="M83 246q27 111 111.5 183t192.5 72q27 0 60.5 -12t41.5 -29l67 266h149l-181 -726h-149l8 33q-17 -17 -51.5 -29t-60.5 -12q-109 0 -162.5 72.5t-25.5 181.5zM232 246q-15 -59 7.5 -100.5t68.5 -41.5q48 0 91 44.5t57 97.5q13 54 -7.5 98.5t-69.5 44.5q-46 0 -89 -42
t-58 -101z" />
    <glyph glyph-name="e" unicode="e" horiz-adv-x="583" 
d="M602 246l-8 -33h-352q-11 -41 16.5 -70t66.5 -29q82 0 130 61l76 -91q-90 -92 -236 -92q-120 0 -173 71.5t-25 182.5q28 112 114 183.5t201 71.5t166.5 -71t23.5 -184zM268 307h194q6 72 -80 72q-81 0 -114 -72z" />
    <glyph glyph-name="f" unicode="f" horiz-adv-x="393" 
d="M523 709l-29 -117q-17 20 -58 20q-24 0 -41 -17t-23.5 -33.5t-13.5 -44.5l-5 -23h117l-31 -122h-117l-92 -372h-148l92 372h-55l31 122h55l5 23q29 116 86 167t153 51q39 0 74 -26z" />
    <glyph glyph-name="g" unicode="g" horiz-adv-x="601" 
d="M508 494h148l-120 -479q-27 -111 -120 -187.5t-207 -76.5t-179 101l128 95q16 -38 34.5 -56t47.5 -18q51 0 93 47.5t59 113.5q-17 -17 -52 -29t-60 -12q-108 0 -161 72t-26 182t116.5 182.5t197.5 72.5q27 0 56 -12t36 -29zM317 104q48 0 92 45t57 98q14 54 -7 98.5
t-70 44.5q-46 0 -89.5 -42t-58.5 -101q-14 -59 8 -101t68 -42z" />
    <glyph glyph-name="h" unicode="h" horiz-adv-x="586" 
d="M589 282l-70 -282h-148l70 282q15 57 3.5 82.5t-54.5 25.5q-95 0 -122 -108l-70 -282h-148l181 726h148l-72 -287q37 62 149 62q102 0 132 -51.5t1 -167.5z" />
    <glyph glyph-name="i" unicode="i" horiz-adv-x="261" 
d="M318 494l-123 -494h-148l123 494h148zM357 636q-8 -32 -36 -53.5t-62 -21.5q-32 0 -49 22t-10 53t35.5 52t60.5 21q34 0 51.5 -21t9.5 -52z" />
    <glyph glyph-name="j" unicode="j" horiz-adv-x="299" 
d="M389 636q-7 -31 -35.5 -53t-61.5 -22t-50.5 21.5t-9.5 53.5q7 31 35.5 52t61.5 21t50.5 -21t9.5 -52zM-88 -153l34 134q2 -1 5.5 -4.5t5 -4.5t5 -3.5t5 -3t5 -2.5t6 -2.5t6.5 -1.5t8 -1t9 -0.5t11 -0.5q11 0 23 4.5t27 23.5t23 51l115 458h148l-115 -458
q-28 -116 -78.5 -167.5t-124.5 -51.5q-41 0 -57 4t-61 26z" />
    <glyph glyph-name="k" unicode="k" horiz-adv-x="589" 
d="M399 0l-115 215q-2 -2 -9.5 -7l-16.5 -11t-11 -8l-47 -189h-149l181 726h149l-89 -356l173 124h221l-289 -200q29 -53 92 -163.5t74 -130.5h-164z" />
    <glyph glyph-name="l" unicode="l" horiz-adv-x="264" 
d="M376 744l-185 -744h-149l185 744h149z" />
    <glyph glyph-name="m" unicode="m" horiz-adv-x="923" 
d="M849 0h-149l70 282q15 57 3.5 82.5t-53.5 25.5q-95 0 -122 -108l-70 -282h-149l70 282q15 57 3.5 82.5t-53.5 25.5q-96 0 -123 -108l-70 -282h-148l123 494h148l-12 -45q65 52 148 52q95 0 131 -67q65 61 188 67q103 0 133.5 -51.5t1.5 -167.5z" />
    <glyph glyph-name="n" unicode="n" horiz-adv-x="569" 
d="M579 282l-70 -282h-148l70 282q15 56 3.5 82t-54.5 26q-95 0 -122 -108l-70 -282h-148l123 494h148l-12 -47q69 54 146 54q103 0 133 -51.5t1 -167.5z" />
    <glyph glyph-name="o" unicode="o" horiz-adv-x="587" 
d="M377 379q-47 0 -88.5 -37.5t-56.5 -95.5q-15 -57 8.5 -94.5t70.5 -37.5t89 37t57 95t-9 95.5t-71 37.5zM407 501q110 0 167.5 -73t30.5 -182q-28 -109 -121.5 -181.5t-202.5 -72.5t-166.5 73t-30.5 181q27 109 120.5 182t202.5 73z" />
    <glyph glyph-name="p" unicode="p" horiz-adv-x="601" 
d="M617 246q-28 -111 -112.5 -182.5t-192.5 -71.5q-24 0 -57 12.5t-45 28.5l-66 -265h-147l180 726h148l-9 -35q45 42 112 42q109 0 162.5 -72.5t26.5 -182.5zM468 246q15 59 -8 101t-70 42q-28 0 -58 -18.5t-53 -49.5q-25 -35 -35 -75q-10 -39 -3 -74q8 -31 28.5 -49.5
t49.5 -18.5q46 0 90 41.5t59 100.5z" />
    <glyph glyph-name="q" unicode="q" horiz-adv-x="613" 
d="M261 -8q-108 0 -157 71.5t-21 182.5q27 110 116 182.5t198 72.5q27 0 56.5 -12t35.5 -29l9 34h149l-181 -726h-149l66 265q-16 -16 -55.5 -28.5t-66.5 -12.5zM379 389q-46 0 -89.5 -42t-58.5 -101q-15 -58 7.5 -100t69.5 -42q48 0 91 44.5t57 97.5q13 52 -8 97.5
t-69 45.5z" />
    <glyph glyph-name="r" unicode="r" horiz-adv-x="378" 
d="M496 487l-48 -111q-27 13 -58 13q-94 0 -122 -111l-69 -278h-148l123 494h148l-11 -44q19 24 53.5 37.5t62.5 13.5q47 0 69 -14z" />
    <glyph glyph-name="s" unicode="s" horiz-adv-x="469" 
d="M258 338q-4 -16 19 -26.5t57.5 -20t67.5 -23.5t51.5 -44t7.5 -73q-18 -74 -86 -116.5t-155 -42.5q-108 0 -176 91l121 97q34 -58 86 -63q23 -2 44 6t28 20q4 12 3.5 19t-11.5 12t-20 7t-21.5 4.5t-16.5 3.5q-34 11 -56 21t-46 28t-32 44.5t1 61.5q13 54 57 92t86.5 51.5
t78.5 13.5q109 0 176 -90l-120 -96q-13 25 -38.5 43t-48.5 18q-47 0 -57 -38z" />
    <glyph glyph-name="t" unicode="t" horiz-adv-x="416" 
d="M276 210q-5 -20 -7 -31t-2 -29t10 -27t29 -9q30 0 69 25l-30 -122q-52 -25 -87 -25q-98 0 -129 49t-1 169l40 162h-55l31 122h55l35 142h148l-35 -142h117l-31 -122h-117z" />
    <glyph glyph-name="u" unicode="u" horiz-adv-x="589" 
d="M101 212l71 282h148l-71 -282q-15 -57 -3 -82.5t54 -25.5q95 0 122 108l71 282h148l-123 -494h-148l11 45q-26 -25 -68 -39t-77 -14q-103 0 -133.5 51.5t-1.5 168.5z" />
    <glyph glyph-name="v" unicode="v" horiz-adv-x="519" 
d="M297 0h-97l-86 494h153l33 -282q30 47 91 146.5t84 135.5h152z" />
    <glyph glyph-name="w" unicode="w" horiz-adv-x="761" 
d="M715 494h151l-311 -494h-97l-33 239q-108 -173 -149 -239h-98l-66 494h152l18 -272l153 272h109l17 -273z" />
    <glyph glyph-name="x" unicode="x" horiz-adv-x="512" 
d="M627 494l-237 -247l114 -247h-154l-58 138l-126 -138h-171l244 254l-106 240h155l50 -135q21 22 60 68t59 67h170z" />
    <glyph glyph-name="y" unicode="y" horiz-adv-x="558" 
d="M506 494h154q-203 -301 -323 -480q-92 -137 -152.5 -196t-134.5 -59q-42 0 -97 55l73 122q24 -31 59 -31q18 0 36.5 14.5t40 47.5t29.5 47.5t29 53.5l-74 426h154l41 -247q58 88 165 247z" />
    <glyph glyph-name="z" unicode="z" horiz-adv-x="502" 
d="M543 494l-28 -109l-268 -263h203l-30 -122h-376l28 114l266 258h-202l31 122h376z" />
    <glyph glyph-name="braceleft" unicode="{" horiz-adv-x="471" 
d="M380 187q-13 -44 -17.5 -68t-4 -49.5t13 -37t38.5 -19t69 -7.5l-36 -146q-161 0 -213 66q-38 50 -31 123l-1 -1q0 18 8.5 57t16.5 72t12 66.5t-5 40.5q-17 21 -100 20l36 143q2 0 19.5 -0.5t24.5 0t21 2.5t25 6t20 11q20 15 48.5 116.5t37.5 119.5q29 72 92 123
q86 68 245 65l-36 -145q-62 0 -108.5 -22t-58.5 -71q-1 -5 -11 -47t-14 -55.5t-15.5 -48t-21.5 -52t-26.5 -39t-35.5 -34.5q39 -63 8 -189z" />
    <glyph glyph-name="braceright" unicode="}" horiz-adv-x="471" 
d="M167 187q15 59 37 105t65 84q-11 11 -17 26.5t-6.5 36.5t0 38.5t6 45t9.5 43t11.5 45.5t10.5 41q12 49 -23.5 71t-97.5 22l36 145q163 3 213 -65q38 -50 32 -123q0 -17 -8.5 -56t-16.5 -72.5t-12 -67t5 -40.5q6 -7 14.5 -11t21.5 -6t19.5 -2.5t24 0t19.5 0.5l-36 -143
q-80 1 -109 -20q-20 -15 -48.5 -116.5t-37.5 -119.5l1 1q-31 -73 -93 -123q-86 -66 -244 -66l36 146q53 0 85.5 9.5t52.5 35t29.5 53.5t20.5 83z" />
    <glyph glyph-name="sterling" unicode="&#xa3;" horiz-adv-x="559" 
d="M364 250q-3 -5 -12 -22.5t-13.5 -25.5t-13.5 -22t-18.5 -25t-20.5 -22h261l-33 -133h-485q8 36 26.5 68.5t34.5 51.5t45 49q57 61 71 81h-116l27 107h110q-10 84 7 149q22 88 102 165q86 82 203 88q84 5 159 -57l-114 -124q-25 36 -75 36q-41 0 -75 -34q-79 -77 -44 -223
h167l-27 -107h-166z" />
    <glyph glyph-name="yen" unicode="&#xa5;" horiz-adv-x="649" 
d="M605 131h-169l-32 -131h-160l32 131h-173l27 107h173l4 17h-173l27 107h129l-170 388h192l123 -303l273 303h192l-362 -388h125l-27 -107h-169l-4 -17h169z" />
    <glyph glyph-name="dieresis" unicode="&#xa8;" 
d="M397 636q-7 -31 -36 -53t-62 -22t-50 21.5t-9 53.5q8 31 35.5 52t60.5 21t50.5 -21t10.5 -52zM587 636q-7 -31 -36 -53t-62 -22t-50.5 21.5t-9.5 53.5q7 31 35.5 52t61.5 21t50.5 -21t10.5 -52z" />
    <glyph glyph-name="guillemotleft" unicode="&#xab;" horiz-adv-x="477" 
d="M156 523q8 29 29 52l130 137h83l-69 -123q23 -26 14 -66q-10 -38 -43 -63.5t-72 -25.5q-40 0 -61 26t-11 63zM389 523q7 28 30 52l129 137h84l-70 -123q23 -26 14 -66q-10 -37 -43 -63t-71 -26q-41 0 -62 26t-11 63z" />
    <glyph glyph-name="degree" unicode="&#xb0;" horiz-adv-x="316" 
d="M317 665q-17 0 -35 -19t-24 -44q-7 -24 2 -42.5t26 -18.5q18 0 36 18t25 43q6 25 -3 44t-27 19zM338 750q62 0 94.5 -43t17.5 -105q-16 -61 -69.5 -103.5t-115.5 -42.5q-61 0 -93.5 42.5t-16.5 103.5q15 61 68.5 104.5t114.5 43.5z" />
    <glyph glyph-name="plusminus" unicode="&#xb1;" 
d="M526 287h-128l-32 -128h-135l32 128h-127l31 125h127l32 128h135l-32 -128h128zM455 0h-390l31 126h390z" />
    <glyph glyph-name="acute" unicode="&#xb4;" 
d="M512 550h-134l160 206l121 -71z" />
    <glyph glyph-name="periodcentered" unicode="&#xb7;" horiz-adv-x="261" 
d="M241 81q-10 -38 -44 -64t-74 -26t-60.5 26t-10.5 64q9 36 43 62t73 26q40 0 61 -26t12 -62z" />
    <glyph glyph-name="cedilla" unicode="&#xb8;" horiz-adv-x="217" 
d="M4 -102l-44 31l148 131l55 -66l-33 -25q50 -32 35 -97q-11 -45 -52 -77t-87 -32q-49 0 -80 50l56 57q4 -7 16 -7q10 0 19.5 7t12.5 18q2 11 -3.5 18t-15.5 7q-17 0 -27 -15z" />
    <glyph glyph-name="guillemotright" unicode="&#xbb;" horiz-adv-x="454" 
d="M377 624q-6 -28 -29 -51l-129 -138h-85l70 122q-23 28 -14 67q9 37 42.5 62.5t72.5 25.5q40 0 60.5 -25.5t11.5 -62.5zM610 624q-6 -26 -29 -51l-130 -138h-85l70 122q-23 30 -14 67t43 62.5t72 25.5q40 0 61 -25.5t12 -62.5z" />
    <glyph glyph-name="Agrave" unicode="&#xc0;" horiz-adv-x="694" 
d="M569 750l122 -750h-172l-26 144h-255l-94 -144h-173l495 750h103zM323 277h154l-24 216q-18 -29 -63 -104t-67 -112zM599 790h-134l-81 135l157 71z" />
    <glyph glyph-name="Aacute" unicode="&#xc1;" horiz-adv-x="694" 
d="M569 750l122 -750h-172l-26 144h-255l-94 -144h-173l495 750h103zM323 277h154l-24 216q-18 -29 -63 -104t-67 -112zM594 791h-134l160 206l121 -71z" />
    <glyph glyph-name="Acircumflex" unicode="&#xc2;" horiz-adv-x="694" 
d="M569 750l122 -750h-172l-26 144h-255l-94 -144h-173l495 750h103zM323 277h154l-24 216q-18 -29 -63 -104t-67 -112zM643 987l76 -196h-137l-38 70l-74 -70h-138l176 196h135z" />
    <glyph glyph-name="Adieresis" unicode="&#xc4;" horiz-adv-x="694" 
d="M569 750l122 -750h-172l-26 144h-255l-94 -144h-173l495 750h103zM323 277h154l-24 216q-18 -29 -63 -104t-67 -112zM528 865q-7 -31 -36 -53t-62 -22t-50 21.5t-9 53.5q8 31 35.5 52t60.5 21t50.5 -21t10.5 -52zM718 865q-7 -31 -36 -53t-62 -22t-50.5 21.5t-9.5 53.5
q7 31 35.5 52t61.5 21t50.5 -21t10.5 -52z" />
    <glyph glyph-name="Ccedilla" unicode="&#xc7;" horiz-adv-x="769" 
d="M661 228l80 -106q-151 -131 -328 -131q-161 0 -245 110.5t-44 273.5q40 162 179.5 272.5t300.5 110.5q85 0 153.5 -33.5t110.5 -98.5l-135 -108q-18 51 -61.5 79t-100.5 28q-97 0 -179.5 -75t-107.5 -175t20 -175.5t142 -75.5q48 0 98 22t117 82zM301 -102l-44 31
l148 131l55 -66l-33 -25q50 -32 35 -97q-11 -45 -52 -77t-87 -32q-49 0 -80 50l56 57q4 -7 16 -7q10 0 19.5 7t12.5 18q2 11 -3.5 18t-15.5 7q-17 0 -27 -15z" />
    <glyph glyph-name="Egrave" unicode="&#xc8;" horiz-adv-x="658" 
d="M260 133h382l-33 -133h-542l186 750h524l-33 -133h-364l-40 -161h298l-33 -134h-298zM649 790h-134l-81 135l157 71z" />
    <glyph glyph-name="Eacute" unicode="&#xc9;" horiz-adv-x="658" 
d="M260 133h382l-33 -133h-542l186 750h524l-33 -133h-364l-40 -161h298l-33 -134h-298zM608 800h-134l160 206l121 -71z" />
    <glyph glyph-name="Ecircumflex" unicode="&#xca;" horiz-adv-x="658" 
d="M260 133h382l-33 -133h-542l186 750h524l-33 -133h-364l-40 -161h298l-33 -134h-298zM651 987l76 -196h-137l-38 70l-74 -70h-138l176 196h135z" />
    <glyph glyph-name="Edieresis" unicode="&#xcb;" horiz-adv-x="658" 
d="M260 133h382l-33 -133h-542l186 750h524l-33 -133h-364l-40 -161h298l-33 -134h-298zM528 865q-7 -31 -36 -53t-62 -22t-50 21.5t-9 53.5q8 31 35.5 52t60.5 21t50.5 -21t10.5 -52zM718 865q-7 -31 -36 -53t-62 -22t-50.5 21.5t-9.5 53.5q7 31 35.5 52t61.5 21t50.5 -21
t10.5 -52z" />
    <glyph glyph-name="Igrave" unicode="&#xcc;" horiz-adv-x="311" 
d="M221 0l186 750h-160l-186 -750h160zM409 790h-134l-81 135l157 71z" />
    <glyph glyph-name="Iacute" unicode="&#xcd;" horiz-adv-x="311" 
d="M221 0l186 750h-160l-186 -750h160zM405 791h-134l160 206l121 -71z" />
    <glyph glyph-name="Icircumflex" unicode="&#xce;" horiz-adv-x="311" 
d="M221 0l186 750h-160l-186 -750h160zM458 987l76 -196h-137l-38 70l-74 -70h-138l176 196h135z" />
    <glyph glyph-name="Idieresis" unicode="&#xcf;" horiz-adv-x="311" 
d="M407 750l-186 -750h-160l186 750h160zM340 865q-7 -31 -36 -53t-62 -22t-50 21.5t-9 53.5q8 31 35.5 52t60.5 21t50.5 -21t10.5 -52zM530 865q-7 -31 -36 -53t-62 -22t-50.5 21.5t-9.5 53.5q7 31 35.5 52t61.5 21t50.5 -21t10.5 -52z" />
    <glyph glyph-name="Ograve" unicode="&#xd2;" horiz-adv-x="832" 
d="M553 625q-96 0 -179 -75.5t-108 -174.5t20.5 -175t141.5 -76q97 0 180 75.5t108 175.5t-20.5 175t-142.5 75zM586 758q161 0 245.5 -110.5t44.5 -272.5t-180 -273t-301 -111t-245 110.5t-44 273.5q40 162 179.5 272.5t300.5 110.5zM659 790h-134l-81 135l157 71z" />
    <glyph glyph-name="Oacute" unicode="&#xd3;" horiz-adv-x="832" 
d="M553 625q-96 0 -179 -75.5t-108 -174.5t20.5 -175t141.5 -76q97 0 180 75.5t108 175.5t-20.5 175t-142.5 75zM586 758q161 0 245.5 -110.5t44.5 -272.5t-180 -273t-301 -111t-245 110.5t-44 273.5q40 162 179.5 272.5t300.5 110.5zM663 791h-134l160 206l121 -71z" />
    <glyph glyph-name="Ocircumflex" unicode="&#xd4;" horiz-adv-x="832" 
d="M553 625q-96 0 -179 -75.5t-108 -174.5t20.5 -175t141.5 -76q97 0 180 75.5t108 175.5t-20.5 175t-142.5 75zM586 758q161 0 245.5 -110.5t44.5 -272.5t-180 -273t-301 -111t-245 110.5t-44 273.5q40 162 179.5 272.5t300.5 110.5zM720 987l76 -196h-137l-38 70l-74 -70
h-138l176 196h135z" />
    <glyph glyph-name="Odieresis" unicode="&#xd6;" horiz-adv-x="832" 
d="M553 625q-96 0 -179 -75.5t-108 -174.5t20.5 -175t141.5 -76q97 0 180 75.5t108 175.5t-20.5 175t-142.5 75zM586 758q161 0 245.5 -110.5t44.5 -272.5t-180 -273t-301 -111t-245 110.5t-44 273.5q40 162 179.5 272.5t300.5 110.5zM597 865q-7 -31 -36 -53t-62 -22
t-50 21.5t-9 53.5q8 31 35.5 52t60.5 21t50.5 -21t10.5 -52zM787 865q-7 -31 -36 -53t-62 -22t-50.5 21.5t-9.5 53.5q7 31 35.5 52t61.5 21t50.5 -21t10.5 -52z" />
    <glyph glyph-name="multiply" unicode="&#xd7;" horiz-adv-x="484" 
d="M498 345l-114 -90l69 -90l-115 -91l-68 89l-111 -89l-71 91l113 90l-68 90l116 93l67 -90l113 90z" />
    <glyph glyph-name="Ugrave" unicode="&#xd9;" horiz-adv-x="732" 
d="M681 750h161l-112 -451q-10 -41 -26.5 -79.5t-48 -81.5t-72.5 -74.5t-103 -52t-137 -20.5q-74 0 -126 20.5t-77.5 52t-35.5 74.5t-7.5 81.5t12.5 79.5l112 451h160l-112 -451q-4 -17 -6.5 -33t-0.5 -44t11.5 -48t36 -35t66.5 -15t74 15t53.5 35t35 47.5t21 44.5t9.5 33z
M629 790h-134l-81 135l157 71z" />
    <glyph glyph-name="Uacute" unicode="&#xda;" horiz-adv-x="732" 
d="M681 750h161l-112 -451q-10 -41 -26.5 -79.5t-48 -81.5t-72.5 -74.5t-103 -52t-137 -20.5q-74 0 -126 20.5t-77.5 52t-35.5 74.5t-7.5 81.5t12.5 79.5l112 451h160l-112 -451q-4 -17 -6.5 -33t-0.5 -44t11.5 -48t36 -35t66.5 -15t74 15t53.5 35t35 47.5t21 44.5t9.5 33z
M594 791h-134l160 206l121 -71z" />
    <glyph glyph-name="Ucircumflex" unicode="&#xdb;" horiz-adv-x="732" 
d="M681 750h161l-112 -451q-10 -41 -26.5 -79.5t-48 -81.5t-72.5 -74.5t-103 -52t-137 -20.5q-74 0 -126 20.5t-77.5 52t-35.5 74.5t-7.5 81.5t12.5 79.5l112 451h160l-112 -451q-4 -17 -6.5 -33t-0.5 -44t11.5 -48t36 -35t66.5 -15t74 15t53.5 35t35 47.5t21 44.5t9.5 33z
M663 987l76 -196h-137l-38 70l-74 -70h-138l176 196h135z" />
    <glyph glyph-name="Udieresis" unicode="&#xdc;" horiz-adv-x="732" 
d="M681 750h161l-112 -451q-10 -41 -26.5 -79.5t-48 -81.5t-72.5 -74.5t-103 -52t-137 -20.5q-74 0 -126 20.5t-77.5 52t-35.5 74.5t-7.5 81.5t12.5 79.5l112 451h160l-112 -451q-4 -17 -6.5 -33t-0.5 -44t11.5 -48t36 -35t66.5 -15t74 15t53.5 35t35 47.5t21 44.5t9.5 33z
M546 865q-7 -31 -36 -53t-62 -22t-50 21.5t-9 53.5q8 31 35.5 52t60.5 21t50.5 -21t10.5 -52zM736 865q-7 -31 -36 -53t-62 -22t-50.5 21.5t-9.5 53.5q7 31 35.5 52t61.5 21t50.5 -21t10.5 -52z" />
    <glyph glyph-name="agrave" unicode="&#xe0;" horiz-adv-x="527" 
d="M248 348l-94 63q103 91 229 91q103 0 143.5 -46.5t25.5 -110.5l-86 -345h-148l8 35q-51 -42 -120 -42q-187 0 -149 152q20 79 91 126.5t172 47.5h77q7 28 -8 44.5t-47 16.5q-57 0 -94 -32zM358 163l11 44h-87q-30 0 -53 -18.5t-25 -46.5q-2 -20 11.5 -29t40.5 -9
q44 0 70.5 19t31.5 40zM482 540h-134l-81 135l157 71z" />
    <glyph glyph-name="aacute" unicode="&#xe1;" horiz-adv-x="527" 
d="M248 348l-94 63q103 91 229 91q103 0 143.5 -46.5t25.5 -110.5l-86 -345h-148l8 35q-51 -42 -120 -42q-187 0 -149 152q20 79 91 126.5t172 47.5h77q7 28 -8 44.5t-47 16.5q-57 0 -94 -32zM358 163l11 44h-87q-30 0 -53 -18.5t-25 -46.5q-2 -20 11.5 -29t40.5 -9
q44 0 70.5 19t31.5 40zM461 550h-134l160 206l121 -71z" />
    <glyph glyph-name="acircumflex" unicode="&#xe2;" horiz-adv-x="527" 
d="M248 348l-94 63q103 91 229 91q103 0 143.5 -46.5t25.5 -110.5l-86 -345h-148l8 35q-51 -42 -120 -42q-187 0 -149 152q20 79 91 126.5t172 47.5h77q7 28 -8 44.5t-47 16.5q-57 0 -94 -32zM358 163l11 44h-87q-30 0 -53 -18.5t-25 -46.5q-2 -20 11.5 -29t40.5 -9
q44 0 70.5 19t31.5 40zM515 736l76 -196h-137l-38 70l-74 -70h-138l176 196h135z" />
    <glyph glyph-name="adieresis" unicode="&#xe4;" horiz-adv-x="527" 
d="M248 348l-94 63q103 91 229 91q103 0 143.5 -46.5t25.5 -110.5l-86 -345h-148l8 35q-51 -42 -120 -42q-187 0 -149 152q20 79 91 126.5t172 47.5h77q7 28 -8 44.5t-47 16.5q-57 0 -94 -32zM358 163l11 44h-87q-30 0 -53 -18.5t-25 -46.5q-2 -20 11.5 -29t40.5 -9
q44 0 70.5 19t31.5 40zM405 636q-7 -31 -36 -53t-62 -22t-50 21.5t-9 53.5q8 31 35.5 52t60.5 21t50.5 -21t10.5 -52zM595 636q-7 -31 -36 -53t-62 -22t-50.5 21.5t-9.5 53.5q7 31 35.5 52t61.5 21t50.5 -21t10.5 -52z" />
    <glyph glyph-name="ccedilla" unicode="&#xe7;" horiz-adv-x="540" 
d="M439 177l80 -94q-104 -91 -229 -91q-109 0 -166.5 73t-30.5 181q27 109 120.5 182t202.5 73q125 0 185 -91l-128 -94q-11 63 -87 63q-47 0 -88.5 -37.5t-56.5 -95.5q-15 -57 8.5 -94.5t70.5 -37.5q78 0 119 63zM177 -102l-44 31l148 131l55 -66l-33 -25q50 -32 35 -97
q-11 -45 -52 -77t-87 -32q-49 0 -80 50l56 57q4 -7 16 -7q10 0 19.5 7t12.5 18q2 11 -3.5 18t-15.5 7q-17 0 -27 -15z" />
    <glyph glyph-name="egrave" unicode="&#xe8;" horiz-adv-x="566" 
d="M579 246l-8 -33h-352q-11 -41 16.5 -70t66.5 -29q82 0 130 61l76 -91q-90 -92 -236 -92q-120 0 -173 71.5t-25 182.5q28 112 114 183.5t201 71.5t166.5 -71t23.5 -184zM245 307h194q6 72 -80 72q-81 0 -114 -72zM481 540h-134l-81 135l157 71z" />
    <glyph glyph-name="eacute" unicode="&#xe9;" horiz-adv-x="561" 
d="M579 246l-8 -33h-352q-11 -41 16.5 -70t66.5 -29q82 0 130 61l76 -91q-90 -92 -236 -92q-120 0 -173 71.5t-25 182.5q28 112 114 183.5t201 71.5t166.5 -71t23.5 -184zM245 307h194q6 72 -80 72q-81 0 -114 -72zM480 550h-134l160 206l121 -71z" />
    <glyph glyph-name="ecircumflex" unicode="&#xea;" horiz-adv-x="566" 
d="M579 246l-8 -33h-352q-11 -41 16.5 -70t66.5 -29q82 0 130 61l76 -91q-90 -92 -236 -92q-120 0 -173 71.5t-25 182.5q28 112 114 183.5t201 71.5t166.5 -71t23.5 -184zM245 307h194q6 72 -80 72q-81 0 -114 -72zM524 736l76 -196h-137l-38 70l-74 -70h-138l176 196h135z
" />
    <glyph glyph-name="edieresis" unicode="&#xeb;" horiz-adv-x="566" 
d="M579 246l-8 -33h-352q-11 -41 16.5 -70t66.5 -29q82 0 130 61l76 -91q-90 -92 -236 -92q-120 0 -173 71.5t-25 182.5q28 112 114 183.5t201 71.5t166.5 -71t23.5 -184zM245 307h194q6 72 -80 72q-81 0 -114 -72zM409 636q-7 -31 -36 -53t-62 -22t-50 21.5t-9 53.5
q8 31 35.5 52t60.5 21t50.5 -21t10.5 -52zM599 636q-7 -31 -36 -53t-62 -22t-50.5 21.5t-9.5 53.5q7 31 35.5 52t61.5 21t50.5 -21t10.5 -52z" />
    <glyph glyph-name="igrave" unicode="&#xec;" horiz-adv-x="263" 
d="M195 0l123 494h-148l-123 -494h148zM323 540h-134l-81 135l157 71z" />
    <glyph glyph-name="iacute" unicode="&#xed;" horiz-adv-x="263" 
d="M195 0l123 494h-148l-123 -494h148zM321 550h-134l160 206l121 -71z" />
    <glyph glyph-name="icircumflex" unicode="&#xee;" horiz-adv-x="263" 
d="M195 0l123 494h-148l-123 -494h148zM373 736l76 -196h-137l-38 70l-74 -70h-138l176 196h135z" />
    <glyph glyph-name="idieresis" unicode="&#xef;" horiz-adv-x="263" 
d="M318 494l-123 -494h-148l123 494h148zM264 636q-7 -31 -36 -53t-62 -22t-50 21.5t-9 53.5q8 31 35.5 52t60.5 21t50.5 -21t10.5 -52zM454 636q-7 -31 -36 -53t-62 -22t-50.5 21.5t-9.5 53.5q7 31 35.5 52t61.5 21t50.5 -21t10.5 -52z" />
    <glyph glyph-name="ograve" unicode="&#xf2;" horiz-adv-x="596" 
d="M377 379q-47 0 -88.5 -37.5t-56.5 -95.5q-15 -57 8.5 -94.5t70.5 -37.5t89 37t57 95t-9 95.5t-71 37.5zM407 501q110 0 167.5 -73t30.5 -182q-28 -109 -121.5 -181.5t-202.5 -72.5t-166.5 73t-30.5 181q27 109 120.5 182t202.5 73zM486 540h-134l-81 135l157 71z" />
    <glyph glyph-name="oacute" unicode="&#xf3;" horiz-adv-x="596" 
d="M377 379q-47 0 -88.5 -37.5t-56.5 -95.5q-15 -57 8.5 -94.5t70.5 -37.5t89 37t57 95t-9 95.5t-71 37.5zM407 501q110 0 167.5 -73t30.5 -182q-28 -109 -121.5 -181.5t-202.5 -72.5t-166.5 73t-30.5 181q27 109 120.5 182t202.5 73zM485 550h-134l160 206l121 -71z" />
    <glyph glyph-name="ocircumflex" unicode="&#xf4;" horiz-adv-x="596" 
d="M377 379q-47 0 -88.5 -37.5t-56.5 -95.5q-15 -57 8.5 -94.5t70.5 -37.5t89 37t57 95t-9 95.5t-71 37.5zM407 501q110 0 167.5 -73t30.5 -182q-28 -109 -121.5 -181.5t-202.5 -72.5t-166.5 73t-30.5 181q27 109 120.5 182t202.5 73zM540 736l76 -196h-137l-38 70l-74 -70
h-138l176 196h135z" />
    <glyph glyph-name="odieresis" unicode="&#xf6;" horiz-adv-x="596" 
d="M377 379q-47 0 -88.5 -37.5t-56.5 -95.5q-15 -57 8.5 -94.5t70.5 -37.5t89 37t57 95t-9 95.5t-71 37.5zM407 501q110 0 167.5 -73t30.5 -182q-28 -109 -121.5 -181.5t-202.5 -72.5t-166.5 73t-30.5 181q27 109 120.5 182t202.5 73zM427 636q-7 -31 -36 -53t-62 -22
t-50 21.5t-9 53.5q8 31 35.5 52t60.5 21t50.5 -21t10.5 -52zM617 636q-7 -31 -36 -53t-62 -22t-50.5 21.5t-9.5 53.5q7 31 35.5 52t61.5 21t50.5 -21t10.5 -52z" />
    <glyph glyph-name="ugrave" unicode="&#xf9;" horiz-adv-x="571" 
d="M92 212l71 282h148l-71 -282q-15 -57 -3 -82.5t54 -25.5q95 0 122 108l71 282h148l-123 -494h-148l11 45q-26 -25 -68 -39t-77 -14q-103 0 -133.5 51.5t-1.5 168.5zM494 540h-134l-81 135l157 71z" />
    <glyph glyph-name="uacute" unicode="&#xfa;" horiz-adv-x="571" 
d="M92 212l71 282h148l-71 -282q-15 -57 -3 -82.5t54 -25.5q95 0 122 108l71 282h148l-123 -494h-148l11 45q-26 -25 -68 -39t-77 -14q-103 0 -133.5 51.5t-1.5 168.5zM453 550h-134l160 206l121 -71z" />
    <glyph glyph-name="ucircumflex" unicode="&#xfb;" horiz-adv-x="571" 
d="M92 212l71 282h148l-71 -282q-15 -57 -3 -82.5t54 -25.5q95 0 122 108l71 282h148l-123 -494h-148l11 45q-26 -25 -68 -39t-77 -14q-103 0 -133.5 51.5t-1.5 168.5zM527 736l76 -196h-137l-38 70l-74 -70h-138l176 196h135z" />
    <glyph glyph-name="udieresis" unicode="&#xfc;" horiz-adv-x="571" 
d="M92 212l71 282h148l-71 -282q-15 -57 -3 -82.5t54 -25.5q95 0 122 108l71 282h148l-123 -494h-148l11 45q-26 -25 -68 -39t-77 -14q-103 0 -133.5 51.5t-1.5 168.5zM415 636q-7 -31 -36 -53t-62 -22t-50 21.5t-9 53.5q8 31 35.5 52t60.5 21t50.5 -21t10.5 -52zM605 636
q-7 -31 -36 -53t-62 -22t-50.5 21.5t-9.5 53.5q7 31 35.5 52t61.5 21t50.5 -21t10.5 -52z" />
    <glyph glyph-name="ydieresis" unicode="&#xff;" horiz-adv-x="493" 
d="M463 494h154q-203 -301 -323 -480q-92 -137 -152.5 -196t-134.5 -59q-42 0 -97 55l73 122q24 -31 59 -31q18 0 36.5 14.5t40 47.5t29.5 47.5t29 53.5l-74 426h154l41 -247q58 88 165 247zM380 636q-7 -31 -36 -53t-62 -22t-50 21.5t-9 53.5q8 31 35.5 52t60.5 21
t50.5 -21t10.5 -52zM570 636q-7 -31 -36 -53t-62 -22t-50.5 21.5t-9.5 53.5q7 31 35.5 52t61.5 21t50.5 -21t10.5 -52z" />
    <glyph glyph-name="Ydieresis" unicode="&#x178;" horiz-adv-x="689" 
d="M728 750h192l-423 -454l-73 -296h-161l73 296l-197 454h192l123 -303zM542 865q-7 -31 -36 -53t-62 -22t-50 21.5t-9 53.5q8 31 35.5 52t60.5 21t50.5 -21t10.5 -52zM732 865q-7 -31 -36 -53t-62 -22t-50.5 21.5t-9.5 53.5q7 31 35.5 52t61.5 21t50.5 -21t10.5 -52z" />
    <glyph glyph-name="circumflex" unicode="&#x2c6;" 
d="M509 736l76 -196h-137l-38 70l-74 -70h-138l176 196h135z" />
    <glyph glyph-name="hungarumlaut" unicode="&#x2dd;" 
 />
    <glyph glyph-name="endash" unicode="&#x2013;" horiz-adv-x="833" 
 />
    <glyph glyph-name="quoteleft" unicode="&#x2018;" horiz-adv-x="246" 
d="M153 523q8 29 29 52l130 137h84l-70 -123q23 -26 14 -66q-10 -38 -43 -63.5t-72 -25.5q-40 0 -61 26t-11 63z" />
    <glyph glyph-name="quoteright" unicode="&#x2019;" horiz-adv-x="266" 
d="M375 624q-6 -26 -29 -51l-130 -138h-85l70 122q-23 28 -14 67q9 37 42.5 62.5t72.5 25.5q40 0 61 -25.5t12 -62.5z" />
    <glyph glyph-name="quotedblleft" unicode="&#x201c;" horiz-adv-x="482" 
d="M156 523q8 29 29 52l130 137h83l-69 -123q23 -26 14 -66q-10 -38 -43 -63.5t-72 -25.5q-40 0 -61 26t-11 63zM389 523q7 28 30 52l129 137h84l-70 -123q23 -26 14 -66q-10 -37 -43 -63t-71 -26q-41 0 -62 26t-11 63z" />
    <glyph glyph-name="quotedblright" unicode="&#x201d;" horiz-adv-x="454" 
d="M377 624q-6 -28 -29 -51l-129 -138h-85l70 122q-23 28 -14 67q9 37 42.5 62.5t72.5 25.5q40 0 60.5 -25.5t11.5 -62.5zM610 624q-6 -26 -29 -51l-130 -138h-85l70 122q-23 30 -14 67t43 62.5t72 25.5q40 0 61 -25.5t12 -62.5z" />
    <glyph glyph-name="bullet" unicode="&#x2022;" horiz-adv-x="301" 
d="M322 372q-9 -38 -42.5 -64t-73.5 -26t-60.5 26t-11.5 64q9 37 42.5 62.5t73.5 25.5t60.5 -25.5t11.5 -62.5z" />
    <glyph glyph-name="ellipsis" unicode="&#x2026;" horiz-adv-x="777" 
d="M241 81q-10 -38 -44 -64t-74 -26t-60.5 26t-10.5 64q9 36 43 62t73 26q40 0 61 -26t12 -62zM470 81q-10 -38 -44 -64t-74 -26t-60.5 26t-10.5 64q9 36 43 62t73 26q40 0 61 -26t12 -62zM699 81q-10 -38 -44 -64t-74 -26t-60.5 26t-10.5 64q9 36 43 62t73 26q40 0 61 -26
t12 -62z" />
    <glyph glyph-name="Euro" unicode="&#x20ac;" horiz-adv-x="808" 
d="M592 207h-240q40 -83 150 -83q122 0 216 104l80 -106q-152 -131 -329 -131q-253 0 -294 216h-85l27 107h52l2 19h-49l26 107h53q57 142 182 230t277 88q177 0 265 -132l-135 -108q-36 107 -163 107q-83 0 -151.5 -51t-111.5 -134h286l-26 -107h-292l-1 -19h288z" />
    <glyph glyph-name="Delta" unicode="&#x2206;" horiz-adv-x="833" 
 />
    <glyph glyph-name="minus" unicode="&#x2212;" horiz-adv-x="536" 
d="M502 192h-390l32 126h390z" />
    <glyph glyph-name="NULL" horiz-adv-x="0" 
 />
    <glyph glyph-name="CR" horiz-adv-x="300" 
 />
    </font>
</defs>
</svg>
